<svg width="638.4" height="241.5" viewBox="0 0 638.4 241.5" xmlns="http://www.w3.org/2000/svg"><g id="svgGroup" stroke-linecap="round" fill-rule="evenodd" font-size="9pt" stroke="#000" stroke-width="0.25mm" fill="black" style="stroke:#000;stroke-width:0.25mm;fill:black"><path d="M 66.3 139.8 L 64.5 139.8 A 17.441 17.441 0 0 1 59.388 139.097 A 12.492 12.492 0 0 1 51.75 132.6 Q 48 125.4 48 117.6 A 9.305 9.305 0 0 1 49.34 112.893 Q 50.178 111.443 51.541 110.023 A 22.818 22.818 0 0 1 53.4 108.3 A 49.048 49.048 0 0 1 59.089 104.246 Q 62.667 102.042 67.05 100.05 A 148.905 148.905 0 0 1 83.879 93.629 A 162.55 162.55 0 0 1 84.45 93.45 Q 93.6 90.6 101.4 88.95 Q 109.2 87.3 113.1 87.3 A 7.982 7.982 0 0 1 113.455 87.309 Q 114.008 87.334 114.968 87.427 A 70.822 70.822 0 0 1 115.2 87.45 A 3.798 3.798 0 0 1 115.738 87.54 Q 116.7 87.779 116.7 88.5 A 0.788 0.788 0 0 1 116.668 88.713 Q 116.611 88.914 116.456 89.164 A 3.247 3.247 0 0 1 116.4 89.25 A 2.792 2.792 0 0 0 116.257 89.488 Q 116.127 89.733 116.105 89.924 A 0.661 0.661 0 0 0 116.1 90 Q 113.614 90.829 107.82 92.675 A 2292.388 2292.388 0 0 1 106.8 93 A 438.992 438.992 0 0 0 99.84 95.283 Q 96.158 96.522 92.1 97.95 Q 84 100.8 76.35 104.1 Q 68.7 107.4 63.75 110.55 A 26.303 26.303 0 0 0 61.882 111.846 Q 58.8 114.206 58.8 116.1 Q 58.8 118.648 63.076 119.326 A 16.137 16.137 0 0 0 63.6 119.4 Q 68.134 119.967 69.991 119.998 A 12.365 12.365 0 0 0 70.2 120 L 73.2 120 Q 74.7 120 75.9 119.7 Q 102.9 117 130.35 110.1 Q 157.8 103.2 185.1 99 L 198.3 84.3 Q 213.3 67.8 228.15 51.6 Q 243 35.4 258.3 19.2 Q 263.1 14.4 266.4 9.6 A 77.168 77.168 0 0 1 271.248 3.3 A 92.751 92.751 0 0 1 274.2 0 A 16 16 0 0 0 279.781 1.789 A 19.647 19.647 0 0 0 281.7 1.95 Q 285.9 2.1 289.95 2.55 A 14.643 14.643 0 0 1 293.808 3.493 A 12.249 12.249 0 0 1 296.85 5.25 A 7.758 7.758 0 0 1 298.971 7.936 Q 299.558 9.114 299.913 10.616 A 19.067 19.067 0 0 1 300.3 12.9 A 16.03 16.03 0 0 1 300.367 14.352 A 14.57 14.57 0 0 1 299.55 19.2 A 28.797 28.797 0 0 1 298.062 22.716 A 24.236 24.236 0 0 1 297 24.6 Q 293.4 31.2 289.5 37.5 Q 285.6 43.8 281.4 50.1 Q 274.8 60.9 267 73.35 Q 259.2 85.8 251.4 99 A 20.655 20.655 0 0 1 255.148 100.735 Q 257.559 102.179 259.15 104.186 A 13.203 13.203 0 0 1 259.2 104.25 Q 261.777 107.543 261.348 112.886 A 20.915 20.915 0 0 1 261.3 113.4 A 79.951 79.951 0 0 1 262.489 115.369 Q 263.01 116.259 263.575 117.267 A 164.156 164.156 0 0 1 264.75 119.4 Q 266.276 122.217 266.608 124.666 A 9.927 9.927 0 0 1 266.7 126 A 16.851 16.851 0 0 1 266.381 129.413 Q 265.986 131.322 265.098 132.711 A 7.366 7.366 0 0 1 261.6 135.6 Q 256.5 137.7 251.4 140.1 A 14.451 14.451 0 0 0 249.868 140.878 Q 248.321 141.773 246.45 143.25 Q 243.6 145.5 241.8 145.5 A 0.746 0.746 0 0 1 241.087 145.055 Q 240.9 144.683 240.9 144 Q 240.9 143.021 243.494 140.945 A 37.62 37.62 0 0 1 244.8 139.95 Q 248.376 137.337 251.953 133.083 A 60.342 60.342 0 0 0 252.6 132.3 Q 256.5 127.5 256.5 121.2 A 10.467 10.467 0 0 0 255.876 117.519 A 9.267 9.267 0 0 0 253.35 113.85 A 23.673 23.673 0 0 0 248.445 110.461 A 29.301 29.301 0 0 0 245.7 109.2 Q 237.3 124.8 230.25 140.55 A 175.253 175.253 0 0 0 223.2 158.883 A 143.003 143.003 0 0 0 219.9 171 Q 219.6 173.4 219.15 175.8 Q 218.7 178.2 218.7 180.6 Q 218.7 183.6 219.75 187.05 A 5.251 5.251 0 0 0 220.685 188.869 Q 222.019 190.5 224.7 190.5 A 13.628 13.628 0 0 0 230.794 188.991 Q 233.747 187.529 236.7 184.65 A 102.324 102.324 0 0 0 240.471 180.788 Q 243.731 177.253 245.7 174.3 A 13.583 13.583 0 0 1 246.436 173.45 Q 246.82 173.045 247.187 172.738 A 5.35 5.35 0 0 1 247.95 172.2 A 1.498 1.498 0 0 1 248.088 172.13 Q 248.933 171.757 248.431 173.588 A 10.662 10.662 0 0 1 248.4 173.7 A 11.057 11.057 0 0 1 247.971 175.437 A 8.58 8.58 0 0 1 247.35 176.85 Q 246.706 178.01 245.95 179.503 A 114.906 114.906 0 0 0 245.7 180 Q 244.627 182.684 243.073 186.928 A 508.6 508.6 0 0 0 242.7 187.95 A 40.775 40.775 0 0 1 239.875 194.128 A 35.007 35.007 0 0 1 238.2 196.8 A 11.059 11.059 0 0 1 236.396 198.857 A 7.098 7.098 0 0 1 231.6 200.7 Q 229.931 200.7 226.197 199.023 A 52.682 52.682 0 0 1 225.6 198.75 Q 221.4 196.8 217.5 194.4 Q 213.632 192.02 212.125 190.82 A 13.228 13.228 0 0 1 212.1 190.8 A 13.543 13.543 0 0 1 209.563 188.36 A 10.31 10.31 0 0 1 207.6 184.35 Q 206.7 180.6 206.7 176.7 A 70.573 70.573 0 0 1 207.586 165.998 Q 208.417 160.606 210.026 154.51 A 162.794 162.794 0 0 1 213 144.6 Q 219.3 125.7 228 106.2 A 22.018 22.018 0 0 0 225.596 105.929 A 18.959 18.959 0 0 0 224.55 105.9 L 221.4 105.9 Q 212.7 105.9 204 106.95 Q 195.3 108 186.6 109.5 Q 176.797 121.543 165.426 137.378 A 828.812 828.812 0 0 0 163.8 139.65 A 1117.764 1117.764 0 0 1 141.127 170.297 A 1227.704 1227.704 0 0 1 137.7 174.75 Q 123.9 192.6 108.6 207.75 Q 93.3 222.9 77.1 232.2 A 71.196 71.196 0 0 1 58.944 239.656 A 60.868 60.868 0 0 1 44.1 241.5 A 56.191 56.191 0 0 1 31.815 240.084 A 70.751 70.751 0 0 1 24.6 238.05 Q 14.4 234.6 7.2 227.55 Q 0 220.5 0 209.7 A 3.568 3.568 0 0 1 0.08 208.911 Q 0.378 207.6 1.8 207.6 A 1.891 1.891 0 0 1 2.629 207.769 Q 3.428 208.155 3.57 209.416 A 5.25 5.25 0 0 1 3.6 210 Q 3.6 215.092 5.551 218.384 A 10.674 10.674 0 0 0 7.5 220.8 A 20.019 20.019 0 0 0 14.442 224.933 A 25.217 25.217 0 0 0 17.25 225.75 Q 23.1 227.1 28.8 227.1 Q 32.1 227.1 35.25 226.95 Q 38.4 226.8 41.4 226.5 Q 58.8 224.1 73.5 215.4 Q 88.2 206.7 100.8 194.4 Q 113.4 182.1 124.65 168.45 Q 135.9 154.8 146.4 142.5 Q 159.6 126.9 172.8 112.5 Q 155.1 117 137.55 123.45 Q 120 129.9 102.45 134.85 Q 84.9 139.8 66.3 139.8 Z M 223.097 95.4 A 199.917 199.917 0 0 0 197.1 97.2 A 8765.846 8765.846 0 0 1 197.585 96.655 Q 202.266 91.389 209.25 83.55 A 926.977 926.977 0 0 1 212.981 79.388 A 1063.409 1063.409 0 0 1 224.85 66.45 Q 233.1 57.6 240.9 49.8 A 388.343 388.343 0 0 1 245.666 45.111 Q 247.934 42.92 249.971 41.037 A 174.589 174.589 0 0 1 254.25 37.2 A 66.176 66.176 0 0 1 255.734 35.952 Q 258.906 33.368 260.726 32.664 A 3.348 3.348 0 0 1 261.9 32.4 A 0.362 0.362 0 0 1 262.171 32.521 Q 262.5 32.867 262.5 34.2 A 6.912 6.912 0 0 1 262.166 36.28 A 9.617 9.617 0 0 1 261.45 37.95 A 48.616 48.616 0 0 0 260.983 38.839 Q 260.614 39.56 260.314 40.212 A 25.364 25.364 0 0 0 259.8 41.4 A 3117.236 3117.236 0 0 0 259.316 42.339 Q 254.634 51.417 247.65 65.1 A 797.271 797.271 0 0 0 243.504 73.342 A 926.096 926.096 0 0 0 232.8 95.7 Q 230.1 95.4 227.85 95.4 L 223.5 95.4 A 185.04 185.04 0 0 0 223.097 95.4 Z" id="0" vector-effect="non-scaling-stroke"/><path d="M 287.812 195.102 A 29.194 29.194 0 0 0 293.4 195.6 A 27.336 27.336 0 0 0 300.187 194.703 A 37.777 37.777 0 0 0 306.15 192.6 A 26.886 26.886 0 0 0 307.404 192.003 Q 310.747 190.306 313.901 187.557 A 45.175 45.175 0 0 0 318.9 182.4 Q 327 173.1 334.5 162 A 88.686 88.686 0 0 0 340.027 152.688 A 67.379 67.379 0 0 0 345 140.1 A 31.753 31.753 0 0 0 345.181 139.542 Q 345.349 139.003 345.45 138.6 Q 345.558 138.169 345.588 137.892 A 1.785 1.785 0 0 0 345.6 137.7 A 2.078 2.078 0 0 0 345.583 137.42 Q 345.498 136.8 345 136.8 A 1.282 1.282 0 0 0 344.409 136.978 Q 342.512 137.995 338.23 144.824 A 159.02 159.02 0 0 0 336 148.5 A 118.431 118.431 0 0 1 333.331 152.925 Q 330.284 157.753 325.95 163.8 Q 322.322 168.863 318.836 172.976 A 96.123 96.123 0 0 1 313.5 178.8 A 61.027 61.027 0 0 1 311.922 180.469 Q 303.534 189 296.4 189 A 7.188 7.188 0 0 1 292.548 187.942 A 8.44 8.44 0 0 1 290.4 186 Q 288 183 288 175.5 A 55.977 55.977 0 0 1 288.126 171.786 Q 288.846 160.951 293.7 148.05 A 190.319 190.319 0 0 1 298.926 135.567 A 236.01 236.01 0 0 1 308.7 116.7 Q 318 100.5 328.8 85.2 A 813.071 813.071 0 0 1 336.816 74.041 A 676.988 676.988 0 0 1 349.8 56.85 Q 360 43.8 367.5 35.1 A 194.826 194.826 0 0 1 368.03 34.471 Q 375.439 25.713 379.35 23.25 A 18.238 18.238 0 0 1 379.728 23.018 Q 382.928 21.111 383.339 22.817 A 2.5 2.5 0 0 1 383.4 23.4 Q 383.4 28.2 375.6 39 A 152.711 152.711 0 0 1 372.77 42.974 A 189.527 189.527 0 0 1 368.1 49.05 Q 363.9 54.3 359.4 59.7 A 204.727 204.727 0 0 1 358.47 60.885 Q 356.688 63.141 353.189 67.489 A 3101.572 3101.572 0 0 1 350.4 70.95 A 1124.22 1124.22 0 0 0 345.883 76.587 Q 343.521 79.552 340.955 82.809 A 1979.639 1979.639 0 0 0 334.5 91.05 Q 325.5 102.6 316.95 114.3 A 551.043 551.043 0 0 0 311.87 121.363 Q 309.462 124.771 307.317 127.929 A 313.534 313.534 0 0 0 302.55 135.15 A 137.267 137.267 0 0 0 301.721 136.463 Q 297.98 142.463 296.699 146.003 A 11.938 11.938 0 0 0 296.1 148.2 Q 295.623 150.585 296.663 151.074 A 1.485 1.485 0 0 0 297.3 151.2 Q 298.261 151.2 298.645 149.853 A 5.704 5.704 0 0 0 298.8 149.1 A 11.146 11.146 0 0 1 298.949 148.653 Q 300.342 144.725 306.15 136.65 Q 312.3 128.1 321 117 A 762.536 762.536 0 0 1 321.545 116.306 A 828.445 828.445 0 0 1 339.3 94.5 Q 348.9 83.1 357.15 73.2 A 4063.538 4063.538 0 0 1 358.855 71.155 Q 365.938 62.667 370.5 57.3 A 348.133 348.133 0 0 0 370.659 57.108 Q 380.755 44.916 387.75 34.2 Q 394.8 23.4 394.8 15.9 A 17.031 17.031 0 0 1 394.466 15.728 A 14.391 14.391 0 0 1 389.1 10.95 Q 387 7.8 384.45 4.95 Q 381.9 2.1 376.5 1.5 Q 371.858 1.036 364.792 6.049 A 63.036 63.036 0 0 0 360.45 9.45 A 101.927 101.927 0 0 0 355.555 13.911 Q 351.54 17.804 347.302 22.657 A 217.098 217.098 0 0 0 338.85 33 A 370.401 370.401 0 0 0 329.827 45.245 A 457.019 457.019 0 0 0 315.75 66.45 Q 304.2 84.9 294.6 104.4 A 335.304 335.304 0 0 0 287.419 119.947 A 266.303 266.303 0 0 0 279.15 141.6 A 150.209 150.209 0 0 0 276.835 149.259 Q 275.148 155.455 274.266 161.032 A 73.616 73.616 0 0 0 273.3 172.5 A 44.058 44.058 0 0 0 273.371 175.02 Q 273.582 178.706 274.427 181.818 A 22.289 22.289 0 0 0 277.95 189.3 A 13.75 13.75 0 0 0 282.125 193.037 Q 284.578 194.47 287.812 195.102 Z" id="1" vector-effect="non-scaling-stroke"/><path d="M 349.262 194.169 A 27.809 27.809 0 0 0 354.9 194.7 A 13.987 13.987 0 0 0 356.035 194.653 Q 359.175 194.398 362.85 192.75 A 24.802 24.802 0 0 0 366.7 190.582 A 30.898 30.898 0 0 0 371.1 186.9 A 97.422 97.422 0 0 0 374.598 183.213 A 111.336 111.336 0 0 0 384 171.15 Q 390 162.3 394.2 156.6 Q 396.263 153.413 397.564 150.694 A 29.775 29.775 0 0 0 398.85 147.6 Q 399.924 144.498 399.195 143.863 A 0.726 0.726 0 0 0 398.7 143.7 A 0.846 0.846 0 0 0 398.571 143.71 Q 397.327 143.903 394.473 147.67 A 67.371 67.371 0 0 0 393 149.7 A 275.726 275.726 0 0 1 390.365 153.193 A 310.9 310.9 0 0 1 377.85 168.45 A 324.374 324.374 0 0 1 376.282 170.234 Q 371.57 175.551 367.854 179.246 A 90.864 90.864 0 0 1 364.2 182.7 A 24.219 24.219 0 0 1 362.495 184.066 Q 360.877 185.242 359.294 185.93 A 10.968 10.968 0 0 1 354.9 186.9 A 4.594 4.594 0 0 1 352.755 186.392 A 5.208 5.208 0 0 1 351.3 185.25 Q 349.8 183.6 349.8 179.7 Q 349.8 168.9 354.6 158.4 Q 359.4 147.9 366.45 138.6 A 181.765 181.765 0 0 1 371.759 131.92 A 148.083 148.083 0 0 1 380.7 122.1 A 8.341 8.341 0 0 1 380.698 122.098 Q 379.76 121.394 377.086 119.229 A 708.287 708.287 0 0 1 375.45 117.9 A 17.197 17.197 0 0 0 374.555 117.218 A 13.453 13.453 0 0 0 366.6 114.6 Q 365.616 114.6 364.89 114.729 A 4.903 4.903 0 0 0 364.2 114.9 A 7.334 7.334 0 0 0 362.566 115.65 Q 360.845 116.679 358.706 118.848 A 47.488 47.488 0 0 0 356.55 121.2 A 164.209 164.209 0 0 0 353.032 125.43 A 201.427 201.427 0 0 0 347.1 133.2 A 1329.371 1329.371 0 0 1 344.217 137.149 Q 342.835 139.036 341.569 140.747 A 729.173 729.173 0 0 1 338.7 144.6 A 3.73 3.73 0 0 0 338.583 144.774 Q 337.523 146.449 339.397 147.733 A 6.806 6.806 0 0 0 340.2 148.2 A 34.944 34.944 0 0 0 338.483 151.816 Q 336.658 156.295 335.817 161.7 A 64.505 64.505 0 0 0 335.1 171.6 Q 335.1 180.9 339.45 187.8 Q 342.594 192.786 349.262 194.169 Z M 384.295 103.096 A 18.935 18.935 0 0 0 392.1 106.8 A 0.794 0.794 0 0 0 392.156 106.825 Q 392.623 107.015 393.089 106.479 A 2.739 2.739 0 0 0 393.3 106.2 Q 393.703 105.595 393.836 105.126 A 1.577 1.577 0 0 0 393.9 104.7 A 2.078 2.078 0 0 0 393.883 104.42 Q 393.798 103.8 393.3 103.8 A 3.28 3.28 0 0 1 390.995 102.208 Q 390.616 101.561 390.444 100.665 A 8.85 8.85 0 0 1 390.3 99 A 5.329 5.329 0 0 1 390.335 98.403 Q 390.476 97.148 391.2 95.7 A 13.951 13.951 0 0 1 393.411 92.837 A 15.887 15.887 0 0 1 397.35 90 A 217.609 217.609 0 0 1 397.885 89.724 Q 401.619 87.8 404.7 86.4 A 8.382 8.382 0 0 0 405.802 85.853 Q 406.363 85.526 406.975 85.079 A 21.067 21.067 0 0 0 408.15 84.15 Q 410.1 82.5 410.1 81.3 A 9.224 9.224 0 0 0 410.147 81.075 Q 410.623 78.652 408.9 79.8 A 21.026 21.026 0 0 1 408.558 80.024 Q 406.984 81.029 405.9 81.3 A 407.302 407.302 0 0 0 404.073 81.609 Q 401.271 82.089 399.654 82.414 A 41.046 41.046 0 0 0 398.55 82.65 Q 396.6 83.1 394.65 83.4 A 52.647 52.647 0 0 1 393.839 83.517 Q 392.333 83.725 389.642 84.035 A 563.879 563.879 0 0 1 387.3 84.3 A 67.787 67.787 0 0 0 386.984 84.34 Q 382.44 84.93 380.7 85.8 A 3.04 3.04 0 0 0 380.368 85.993 Q 378.843 87.014 378.3 90 Q 377.473 94.137 379.427 97.704 A 14.447 14.447 0 0 0 381.75 100.8 A 24.677 24.677 0 0 0 384.295 103.096 Z" id="2" vector-effect="non-scaling-stroke"/><path d="M 410.4 195 Q 400.8 195 394.35 188.1 A 23.38 23.38 0 0 1 388.538 176.525 A 33.758 33.758 0 0 1 387.9 169.8 Q 387.9 162.364 391.188 153.393 A 76.406 76.406 0 0 1 392.4 150.3 A 77.372 77.372 0 0 1 401.837 133.728 A 88.736 88.736 0 0 1 404.1 130.8 Q 411.6 121.5 420.75 115.35 Q 429.029 109.786 436.939 109.256 A 24.846 24.846 0 0 1 438.6 109.2 Q 441.9 109.2 446.4 110.1 A 10.304 10.304 0 0 1 451.763 113.063 A 15.57 15.57 0 0 1 453.9 115.8 A 2.2 2.2 0 0 1 454.226 116.232 Q 454.5 116.693 454.738 117.443 A 12.723 12.723 0 0 1 454.95 118.2 A 15.12 15.12 0 0 1 455.354 120.785 A 18.323 18.323 0 0 1 455.4 122.1 Q 455.4 124.261 454.765 125.628 A 3.801 3.801 0 0 1 453 127.5 A 11.382 11.382 0 0 0 452.906 125.981 Q 452.673 124.25 451.855 123.336 A 2.94 2.94 0 0 0 451.5 123 A 5.462 5.462 0 0 0 448.416 121.819 A 6.979 6.979 0 0 0 447.9 121.8 A 12.221 12.221 0 0 0 444.768 122.227 A 16.652 16.652 0 0 0 442.2 123.15 Q 439.464 124.381 437.476 125.737 A 21.338 21.338 0 0 0 437.1 126 Q 431.947 129.722 424.881 137.133 A 185.69 185.69 0 0 0 424.2 137.85 Q 416.7 145.8 410.55 154.65 A 77.326 77.326 0 0 0 406.836 160.504 Q 405.213 163.356 404.119 165.97 A 33.28 33.28 0 0 0 402.6 170.4 Q 401.4 174.9 401.4 178.8 Q 401.4 184.2 404.1 186.45 A 9.665 9.665 0 0 0 409.511 188.645 A 12.614 12.614 0 0 0 410.7 188.7 A 22.527 22.527 0 0 0 418.181 187.391 A 25.956 25.956 0 0 0 419.1 187.05 A 40.713 40.713 0 0 0 422.887 185.346 A 29.7 29.7 0 0 0 426.3 183.3 Q 432.9 178.5 437.4 173.85 Q 441.9 169.2 447.6 162.3 Q 449.162 160.069 450.558 159.497 A 2.475 2.475 0 0 1 451.5 159.3 Q 453 159.3 451.95 163.05 A 12.776 12.776 0 0 1 451.064 165.264 Q 449.937 167.528 447.677 170.558 A 80.899 80.899 0 0 1 445.2 173.7 Q 441.3 178.2 437.1 182.4 A 47.467 47.467 0 0 1 433.031 186.046 A 34.782 34.782 0 0 1 428.7 189 A 45.89 45.89 0 0 1 421.627 192.656 Q 417.296 194.409 413.163 194.851 A 25.982 25.982 0 0 1 410.4 195 Z" id="3" vector-effect="non-scaling-stroke"/><path d="M 463.755 192.165 A 25.254 25.254 0 0 0 474 194.4 A 38.97 38.97 0 0 0 476.744 194.305 A 31.353 31.353 0 0 0 492.45 189 Q 500.4 183.6 506.1 176.4 Q 512.1 168.9 514.05 164.7 A 26.975 26.975 0 0 0 514.369 163.987 Q 515.867 160.5 514.5 160.5 A 3.113 3.113 0 0 0 513.081 160.936 Q 510.938 162.082 507.34 166.243 A 90.789 90.789 0 0 0 504.9 169.2 Q 501.9 172.8 497.4 177.15 A 58.583 58.583 0 0 1 493.463 180.64 A 44.867 44.867 0 0 1 488.4 184.2 A 27.442 27.442 0 0 1 485.603 185.66 A 34.58 34.58 0 0 1 481.5 187.2 A 29.277 29.277 0 0 1 479.085 187.834 A 24.004 24.004 0 0 1 474 188.4 Q 469.8 188.4 466.8 186.15 A 6.543 6.543 0 0 1 464.792 183.615 Q 464.258 182.465 464.012 180.985 A 16.992 16.992 0 0 1 463.8 178.2 Q 463.8 176.606 464.054 174.843 A 32.509 32.509 0 0 1 464.7 171.6 A 66.124 66.124 0 0 1 469.807 158.117 A 83.759 83.759 0 0 1 478.8 144.15 A 117.065 117.065 0 0 1 487.232 134.521 A 91.4 91.4 0 0 1 501.3 122.7 Q 503.63 121.036 505.775 120.295 A 10.164 10.164 0 0 1 509.1 119.7 A 6.603 6.603 0 0 1 510.682 119.873 Q 512.536 120.332 513.077 122.009 A 5.181 5.181 0 0 1 513.3 123.6 A 7.912 7.912 0 0 1 512.658 126.62 Q 512.163 127.823 511.285 129.085 A 21.294 21.294 0 0 1 509.4 131.4 A 52.185 52.185 0 0 1 503.092 137.882 A 71.219 71.219 0 0 1 496.05 143.25 Q 487.8 148.8 480.3 155.1 Q 472.8 161.4 469.8 170.4 A 6.509 6.509 0 0 0 469.776 170.465 Q 469.059 172.441 470.432 172.745 A 2.641 2.641 0 0 0 471 172.8 Q 471.9 172.8 472.463 171.956 A 3.575 3.575 0 0 0 472.8 171.3 A 12.171 12.171 0 0 1 473.159 170.551 Q 474.767 167.468 478.531 164.323 A 45.045 45.045 0 0 1 482.25 161.55 Q 489.6 156.6 498.6 151.35 Q 507.6 146.1 514.5 140.7 Q 518.7 137.1 521.4 132.45 Q 522.877 129.907 523.546 127.588 A 13.293 13.293 0 0 0 524.1 123.9 Q 524.1 120.6 522.15 117.9 A 8.368 8.368 0 0 0 521.322 116.922 Q 520.243 115.828 518.702 115.043 A 15.036 15.036 0 0 0 516 114 Q 512.4 113.1 508.35 112.2 A 17.469 17.469 0 0 1 506.509 111.69 Q 503.861 110.788 502.5 109.2 A 22.848 22.848 0 0 0 499.138 109.453 Q 492.553 110.431 485.4 115.2 A 70.559 70.559 0 0 0 477.726 121.139 A 87.286 87.286 0 0 0 468.45 130.8 A 103.406 103.406 0 0 0 467.468 132.004 A 92.954 92.954 0 0 0 455.55 151.05 Q 450.6 161.7 450.6 170.7 A 39.648 39.648 0 0 0 450.617 171.887 Q 450.671 173.682 450.9 174.6 A 37.007 37.007 0 0 0 451.373 177.018 Q 453.495 186.191 459.75 190.05 A 32.683 32.683 0 0 0 463.755 192.165 Z" id="4" vector-effect="non-scaling-stroke"/><path d="M 531.3 139.5 L 531 140.1 A 70.557 70.557 0 0 1 526.889 147.274 A 62.715 62.715 0 0 1 525.75 148.95 Q 522.9 153 520.5 156.6 Q 516 162.9 511.95 168.45 A 137.825 137.825 0 0 1 508.596 172.845 Q 506.685 175.254 504.43 177.916 A 272.45 272.45 0 0 1 501.6 181.2 Q 499.5 183.6 497.7 183.6 A 2.189 2.189 0 0 1 496.935 183.477 Q 495.9 183.092 495.9 181.5 A 3.478 3.478 0 0 1 496.218 180.075 Q 496.435 179.588 496.8 179.1 Q 503.7 170.7 508.35 164.55 A 279.308 279.308 0 0 0 512.62 158.738 Q 514.775 155.728 517.118 152.318 A 496.19 496.19 0 0 0 518.7 150 Q 521.7 145.8 524.85 140.55 Q 528 135.3 529.5 130.5 A 26.571 26.571 0 0 1 529.487 129.67 A 22.401 22.401 0 0 1 535.8 113.85 A 41.81 41.81 0 0 1 551.107 103.545 A 48.552 48.552 0 0 1 552 103.2 A 51.212 51.212 0 0 1 559.948 100.898 Q 563.874 100.114 567.576 100.114 A 34.02 34.02 0 0 1 570 100.2 A 3.19 3.19 0 0 1 571.596 100.664 Q 572.944 101.438 574.35 103.5 Q 576.6 106.8 578.25 110.25 A 1950.537 1950.537 0 0 0 578.822 111.444 Q 579.753 113.387 580.084 114.064 A 31.94 31.94 0 0 0 580.2 114.3 L 580.2 114.9 A 1.811 1.811 0 0 1 579.605 116.265 A 2.458 2.458 0 0 1 579.45 116.4 A 0.906 0.906 0 0 1 578.867 116.6 Q 578.326 116.6 577.566 116.074 A 6.63 6.63 0 0 1 577.2 115.8 Q 576.512 115.571 575.122 115.517 A 23.845 23.845 0 0 0 574.2 115.5 A 30.666 30.666 0 0 0 570.572 115.732 Q 567.338 116.119 563.4 117.15 Q 557.1 118.8 550.95 121.8 Q 545.449 124.484 541.748 127.647 A 29.738 29.738 0 0 0 540.9 128.4 A 12.88 12.88 0 0 0 539.05 130.49 Q 537.17 133.191 537.6 136.2 A 10.807 10.807 0 0 0 538.429 139.059 A 8.266 8.266 0 0 0 540.9 142.2 A 74.495 74.495 0 0 0 543.094 143.838 Q 544.324 144.725 545.738 145.679 A 140.855 140.855 0 0 0 547.5 146.85 A 30.178 30.178 0 0 1 550.51 149.121 Q 552.04 150.422 553.654 152.075 A 65.557 65.557 0 0 1 555.9 154.5 A 27.399 27.399 0 0 1 559.261 159.282 Q 561.162 162.774 561.518 166.347 A 16.647 16.647 0 0 1 561.6 168 A 17.275 17.275 0 0 1 557.715 178.931 A 21.471 21.471 0 0 1 557.7 178.95 Q 553.8 183.9 548.4 186.9 A 26.816 26.816 0 0 1 539.618 189.988 A 36.237 36.237 0 0 1 533.4 190.5 A 27.987 27.987 0 0 1 524.611 189.152 A 25.22 25.22 0 0 1 519.9 187.05 Q 514.562 183.98 513.973 177.704 A 17.184 17.184 0 0 1 513.9 176.1 A 18.254 18.254 0 0 1 514.252 172.608 A 22.977 22.977 0 0 1 514.8 170.4 Q 515.919 166.483 517.952 165.045 A 4.728 4.728 0 0 1 518.25 164.85 A 6.847 6.847 0 0 1 518.617 164.644 Q 520.441 163.697 520.209 165.531 A 4.227 4.227 0 0 1 520.2 165.6 Q 519.604 168.582 521.379 170.972 A 7.86 7.86 0 0 0 521.4 171 A 12.77 12.77 0 0 0 524.86 174.147 A 15.68 15.68 0 0 0 526.2 174.9 A 26.764 26.764 0 0 0 528.333 175.691 Q 530.55 176.4 532.2 176.4 A 14.991 14.991 0 0 0 541.237 173.345 A 20.38 20.38 0 0 0 543.15 171.75 A 18.758 18.758 0 0 0 545.943 168.503 Q 547.713 165.847 548.031 162.971 A 11.554 11.554 0 0 0 548.1 161.7 A 10.161 10.161 0 0 0 547.698 158.78 A 8.177 8.177 0 0 0 546 155.7 A 34.838 34.838 0 0 0 542.337 151.287 A 26.313 26.313 0 0 0 538.05 147.75 Q 533.7 144.9 531.3 139.5 Z" id="5" vector-effect="non-scaling-stroke"/><path d="M 589.5 139.5 L 589.2 140.1 A 70.557 70.557 0 0 1 585.089 147.274 A 62.715 62.715 0 0 1 583.95 148.95 Q 581.1 153 578.7 156.6 Q 574.2 162.9 570.15 168.45 A 137.825 137.825 0 0 1 566.796 172.845 Q 564.885 175.254 562.63 177.916 A 272.45 272.45 0 0 1 559.8 181.2 Q 557.7 183.6 555.9 183.6 A 2.189 2.189 0 0 1 555.135 183.477 Q 554.1 183.092 554.1 181.5 A 3.478 3.478 0 0 1 554.418 180.075 Q 554.635 179.588 555 179.1 Q 561.9 170.7 566.55 164.55 A 279.308 279.308 0 0 0 570.82 158.738 Q 572.975 155.728 575.318 152.318 A 496.19 496.19 0 0 0 576.9 150 Q 579.9 145.8 583.05 140.55 Q 586.2 135.3 587.7 130.5 A 26.571 26.571 0 0 1 587.687 129.67 A 22.401 22.401 0 0 1 594 113.85 A 41.81 41.81 0 0 1 609.307 103.545 A 48.552 48.552 0 0 1 610.2 103.2 A 51.212 51.212 0 0 1 618.148 100.898 Q 622.074 100.114 625.776 100.114 A 34.02 34.02 0 0 1 628.2 100.2 A 3.19 3.19 0 0 1 629.796 100.664 Q 631.144 101.438 632.55 103.5 Q 634.8 106.8 636.45 110.25 A 1950.537 1950.537 0 0 0 637.022 111.444 Q 637.953 113.387 638.284 114.064 A 31.94 31.94 0 0 0 638.4 114.3 L 638.4 114.9 A 1.811 1.811 0 0 1 637.805 116.265 A 2.458 2.458 0 0 1 637.65 116.4 A 0.906 0.906 0 0 1 637.067 116.6 Q 636.526 116.6 635.766 116.074 A 6.63 6.63 0 0 1 635.4 115.8 Q 634.712 115.571 633.322 115.517 A 23.845 23.845 0 0 0 632.4 115.5 A 30.666 30.666 0 0 0 628.772 115.732 Q 625.538 116.119 621.6 117.15 Q 615.3 118.8 609.15 121.8 Q 603.649 124.484 599.948 127.647 A 29.738 29.738 0 0 0 599.1 128.4 A 12.88 12.88 0 0 0 597.25 130.49 Q 595.37 133.191 595.8 136.2 A 10.807 10.807 0 0 0 596.629 139.059 A 8.266 8.266 0 0 0 599.1 142.2 A 74.495 74.495 0 0 0 601.294 143.838 Q 602.524 144.725 603.938 145.679 A 140.855 140.855 0 0 0 605.7 146.85 A 30.178 30.178 0 0 1 608.71 149.121 Q 610.24 150.422 611.854 152.075 A 65.557 65.557 0 0 1 614.1 154.5 A 27.399 27.399 0 0 1 617.461 159.282 Q 619.362 162.774 619.718 166.347 A 16.647 16.647 0 0 1 619.8 168 A 17.275 17.275 0 0 1 615.915 178.931 A 21.471 21.471 0 0 1 615.9 178.95 Q 612 183.9 606.6 186.9 A 26.816 26.816 0 0 1 597.818 189.988 A 36.237 36.237 0 0 1 591.6 190.5 A 27.987 27.987 0 0 1 582.811 189.152 A 25.22 25.22 0 0 1 578.1 187.05 Q 572.762 183.98 572.173 177.704 A 17.184 17.184 0 0 1 572.1 176.1 A 18.254 18.254 0 0 1 572.452 172.608 A 22.977 22.977 0 0 1 573 170.4 Q 574.119 166.483 576.152 165.045 A 4.728 4.728 0 0 1 576.45 164.85 A 6.847 6.847 0 0 1 576.817 164.644 Q 578.641 163.697 578.409 165.531 A 4.227 4.227 0 0 1 578.4 165.6 Q 577.804 168.582 579.579 170.972 A 7.86 7.86 0 0 0 579.6 171 A 12.77 12.77 0 0 0 583.06 174.147 A 15.68 15.68 0 0 0 584.4 174.9 A 26.764 26.764 0 0 0 586.533 175.691 Q 588.75 176.4 590.4 176.4 A 14.991 14.991 0 0 0 599.437 173.345 A 20.38 20.38 0 0 0 601.35 171.75 A 18.758 18.758 0 0 0 604.143 168.503 Q 605.913 165.847 606.231 162.971 A 11.554 11.554 0 0 0 606.3 161.7 A 10.161 10.161 0 0 0 605.898 158.78 A 8.177 8.177 0 0 0 604.2 155.7 A 34.838 34.838 0 0 0 600.537 151.287 A 26.313 26.313 0 0 0 596.25 147.75 Q 591.9 144.9 589.5 139.5 Z" id="6" vector-effect="non-scaling-stroke"/></g></svg>