<?xml version="1.0" encoding="utf-8"?>
<!-- Generator: Adobe Illustrator 22.0.0, SVG Export Plug-In . SVG Version: 6.00 Build 0)  -->
<svg version="1.1" id="曲院风荷" xmlns="http://www.w3.org/2000/svg" xmlns:xlink="http://www.w3.org/1999/xlink" x="0px"
	 y="0px" viewBox="0 0 1024 1024" style="enable-background:new 0 0 1024 1024;" xml:space="preserve">
<style type="text/css">
	.st0{fill:none;}
	.st1{fill:none;}
	.st2{clip-path:url(#SVGID_2_);}
	.st3{fill:url(#SVGID_3_);}
	.st4{fill:url(#SVGID_4_);}
	.st5{fill:url(#SVGID_5_);}
	.st6{fill:url(#SVGID_6_);}
	.st7{fill:url(#SVGID_7_);}
	.st8{fill:url(#SVGID_8_);}
	.st9{fill:url(#SVGID_9_);}
	.st10{fill:url(#SVGID_10_);}
	.st11{fill:url(#SVGID_11_);}
	.st12{fill:url(#SVGID_12_);}
	.st13{fill:url(#SVGID_13_);}
	.st14{fill:url(#SVGID_14_);}
	.st15{fill:url(#SVGID_15_);}
	.st16{fill:url(#SVGID_16_);}
	.st17{fill:url(#SVGID_17_);}
	.st18{fill:url(#SVGID_18_);}
	.st19{fill:url(#SVGID_19_);}
	.st20{opacity:0.5;fill:#C5D1D6;}
	.st21{fill:url(#SVGID_20_);}
	.st22{fill:#253A59;}
	.st23{fill:url(#SVGID_21_);}
	.st24{fill:url(#SVGID_22_);}
	.st25{fill:url(#SVGID_23_);}
	.st26{fill:url(#SVGID_24_);}
	.st27{fill:url(#SVGID_25_);}
	.st28{fill:url(#SVGID_26_);}
	.st29{fill:url(#SVGID_27_);}
	.st30{fill:url(#SVGID_28_);}
	.st31{fill:url(#SVGID_29_);}
	.st32{fill:url(#SVGID_30_);}
	.st33{fill:url(#SVGID_31_);}
	.st34{fill:url(#SVGID_32_);}
	.st35{fill:url(#SVGID_33_);}
	.st36{fill:url(#SVGID_34_);}
	.st37{fill:url(#SVGID_35_);}
	.st38{fill:url(#SVGID_36_);}
	.st39{fill:url(#SVGID_37_);}
	.st40{fill:url(#SVGID_38_);}
	.st41{fill:url(#SVGID_39_);}
	.st42{fill:url(#SVGID_40_);}
	.st43{fill:url(#SVGID_41_);}
	.st44{fill:url(#SVGID_42_);}
	.st45{fill:url(#SVGID_43_);}
	.st46{fill:url(#SVGID_44_);}
	.st47{fill:url(#SVGID_45_);}
	.st48{fill:url(#SVGID_46_);}
	.st49{fill:url(#SVGID_47_);}
	.st50{fill:url(#SVGID_48_);}
	.st51{fill:url(#SVGID_49_);}
	.st52{fill:url(#SVGID_50_);}
	.st53{fill:url(#SVGID_51_);}
	.st54{fill:url(#SVGID_52_);}
	.st55{fill:url(#SVGID_53_);}
	.st56{fill:url(#SVGID_54_);}
	.st57{fill:url(#SVGID_55_);}
	.st58{fill:url(#SVGID_56_);}
	.st59{fill:url(#SVGID_57_);}
	.st60{fill:#99000F;}
</style>
<path class="st0" d="M0,0v1024h1024V0H0z M512,980.4C253.3,980.4,43.6,770.7,43.6,512S253.3,43.6,512,43.6S980.4,253.3,980.4,512
	S770.7,980.4,512,980.4z"/>
<circle class="st1" cx="512" cy="512" r="468.4"/>
<circle class="st1" cx="512" cy="512" r="468.4"/>
<g>
	<defs>
		<circle id="SVGID_1_" cx="512" cy="512" r="468.4"/>
	</defs>
	<clipPath id="SVGID_2_">
		<use xlink:href="#SVGID_1_"  style="overflow:visible;"/>
	</clipPath>
	<g class="st2">
		<g>
			<g>
				<g>
					<g>
						<linearGradient id="SVGID_3_" gradientUnits="userSpaceOnUse" x1="532.6711" y1="420.1054" x2="532.7581" y2="417.3917">
							<stop  offset="0" style="stop-color:#FFCDD6"/>
							<stop  offset="0.3975" style="stop-color:#6D8DAF"/>
							<stop  offset="1" style="stop-color:#253A59"/>
						</linearGradient>
						<rect x="532.2" y="417.4" class="st3" width="1.1" height="2.7"/>
						<linearGradient id="SVGID_4_" gradientUnits="userSpaceOnUse" x1="537.7263" y1="420.1054" x2="537.8133" y2="417.3917">
							<stop  offset="0" style="stop-color:#FFCDD6"/>
							<stop  offset="0.3975" style="stop-color:#6D8DAF"/>
							<stop  offset="1" style="stop-color:#253A59"/>
						</linearGradient>
						<rect x="537.2" y="417.4" class="st4" width="1.1" height="2.7"/>
						<linearGradient id="SVGID_5_" gradientUnits="userSpaceOnUse" x1="548.8694" y1="420.1054" x2="548.9564" y2="417.3917">
							<stop  offset="0" style="stop-color:#FFCDD6"/>
							<stop  offset="0.3975" style="stop-color:#6D8DAF"/>
							<stop  offset="1" style="stop-color:#253A59"/>
						</linearGradient>
						<rect x="548.4" y="417.4" class="st5" width="1.1" height="2.7"/>
						<linearGradient id="SVGID_6_" gradientUnits="userSpaceOnUse" x1="553.9246" y1="420.1054" x2="554.0116" y2="417.3917">
							<stop  offset="0" style="stop-color:#FFCDD6"/>
							<stop  offset="0.3975" style="stop-color:#6D8DAF"/>
							<stop  offset="1" style="stop-color:#253A59"/>
						</linearGradient>
						<rect x="553.4" y="417.4" class="st6" width="1.1" height="2.7"/>
					</g>
					<g>
						<linearGradient id="SVGID_7_" gradientUnits="userSpaceOnUse" x1="528.8605" y1="442.604" x2="528.9587" y2="439.5417">
							<stop  offset="0" style="stop-color:#FFCDD6"/>
							<stop  offset="0.3975" style="stop-color:#6D8DAF"/>
							<stop  offset="1" style="stop-color:#253A59"/>
						</linearGradient>
						<rect x="526.4" y="439.6" class="st7" width="5.1" height="2.9"/>
						<linearGradient id="SVGID_8_" gradientUnits="userSpaceOnUse" x1="557.3797" y1="442.604" x2="557.4779" y2="439.5417">
							<stop  offset="0" style="stop-color:#FFCDD6"/>
							<stop  offset="0.3975" style="stop-color:#6D8DAF"/>
							<stop  offset="1" style="stop-color:#253A59"/>
						</linearGradient>
						<rect x="554.9" y="439.6" class="st8" width="5.1" height="2.9"/>
						<linearGradient id="SVGID_9_" gradientUnits="userSpaceOnUse" x1="568.7464" y1="444.7736" x2="568.9142" y2="439.5429">
							<stop  offset="0" style="stop-color:#FFCDD6"/>
							<stop  offset="0.3975" style="stop-color:#6D8DAF"/>
							<stop  offset="1" style="stop-color:#253A59"/>
						</linearGradient>
						<rect x="566.3" y="439.6" class="st9" width="5.1" height="5.1"/>
						<linearGradient id="SVGID_10_" gradientUnits="userSpaceOnUse" x1="517.6365" y1="444.7736" x2="517.8043" y2="439.5429">
							<stop  offset="0" style="stop-color:#FFCDD6"/>
							<stop  offset="0.3975" style="stop-color:#6D8DAF"/>
							<stop  offset="1" style="stop-color:#253A59"/>
						</linearGradient>
						<rect x="515.2" y="439.6" class="st10" width="5.1" height="5.1"/>
					</g>
					<g>
						<g>
							<linearGradient id="SVGID_11_" gradientUnits="userSpaceOnUse" x1="510.2471" y1="487.8179" x2="510.2471" y2="463.4661">
								<stop  offset="0" style="stop-color:#FFCDD6"/>
								<stop  offset="0.3975" style="stop-color:#6D8DAF"/>
								<stop  offset="1" style="stop-color:#253A59"/>
							</linearGradient>
							<polygon class="st11" points="513.3,463.5 512.6,463.5 510.4,463.5 509.4,463.5 507.2,463.5 507.2,468.8 507.2,487.8 
								509.4,487.8 509.4,468.8 510.4,468.8 510.4,487.8 512.6,487.8 512.6,468.8 513.3,468.8 							"/>
							<linearGradient id="SVGID_12_" gradientUnits="userSpaceOnUse" x1="524.4968" y1="487.8179" x2="524.4968" y2="463.4661">
								<stop  offset="0" style="stop-color:#FFCDD6"/>
								<stop  offset="0.3975" style="stop-color:#6D8DAF"/>
								<stop  offset="1" style="stop-color:#253A59"/>
							</linearGradient>
							<polygon class="st12" points="527.2,463.5 527.2,463.5 525,463.5 525,463.5 524,463.5 524,463.5 521.8,463.5 521.8,463.5 
								521.1,463.5 521.1,468.8 521.8,468.8 521.8,487.8 521.8,487.8 524,487.8 524,487.8 524,468.8 525,468.8 525,487.8 525,487.8 
								527.2,487.8 527.2,487.8 527.2,468.8 527.9,468.8 527.9,463.5 							"/>
						</g>
						<g>
							<linearGradient id="SVGID_13_" gradientUnits="userSpaceOnUse" x1="576.5873" y1="487.8179" x2="576.5873" y2="463.4661">
								<stop  offset="0" style="stop-color:#FFCDD6"/>
								<stop  offset="0.3975" style="stop-color:#6D8DAF"/>
								<stop  offset="1" style="stop-color:#253A59"/>
							</linearGradient>
							<polygon class="st13" points="573.5,463.5 574.2,463.5 576.4,463.5 577.4,463.5 579.6,463.5 579.6,468.8 579.6,487.8 
								577.4,487.8 577.4,468.8 576.4,468.8 576.4,487.8 574.2,487.8 574.2,468.8 573.5,468.8 							"/>
							<linearGradient id="SVGID_14_" gradientUnits="userSpaceOnUse" x1="562.3376" y1="487.8179" x2="562.3376" y2="463.4661">
								<stop  offset="0" style="stop-color:#FFCDD6"/>
								<stop  offset="0.3975" style="stop-color:#6D8DAF"/>
								<stop  offset="1" style="stop-color:#253A59"/>
							</linearGradient>
							<polygon class="st14" points="559.6,463.5 559.6,463.5 561.8,463.5 561.8,463.5 562.9,463.5 562.9,463.5 565,463.5 
								565,463.5 565.7,463.5 565.7,468.8 565,468.8 565,487.8 565,487.8 562.9,487.8 562.9,487.8 562.9,468.8 561.8,468.8 
								561.8,487.8 561.8,487.8 559.6,487.8 559.6,487.8 559.6,468.8 559,468.8 559,463.5 							"/>
						</g>
					</g>
					<g>
						<linearGradient id="SVGID_15_" gradientUnits="userSpaceOnUse" x1="542.6063" y1="465.3524" x2="543.3951" y2="440.7686">
							<stop  offset="0" style="stop-color:#FFCDD6"/>
							<stop  offset="0.3975" style="stop-color:#6D8DAF"/>
							<stop  offset="1" style="stop-color:#253A59"/>
						</linearGradient>
						<path class="st15" d="M604.8,444.2h-0.6c-1.1,2.4-2.6,4.2-4.1,5.4c-0.1,0-3.8,1.6-5,1.6c-1.2,0-0.7-2-0.7-2
							c0-0.1,0.1-0.2,0.1-0.2c2.3-3.7,3.3-6.1,3.5-6.6h-0.6c-2.1,5.2-6.3,7-6.3,7l-1.6,0.3c0,0-6.3,0.4-6.9,0
							c-0.4-0.2-5.8-2.7-9.2-4.2l-7.2-3.1h-17.8h-2.8h-1.3l-1,0l-1,0H541h-2.8h-17.8l-7.2,3.1c-3.4,1.5-8.8,3.9-9.2,4.2
							c-0.7,0.4-6.9,0-6.9,0l-1.6-0.3c0,0-4.2-1.8-6.3-7h-0.6c0.2,0.4,1.2,2.8,3.5,6.6c0,0.1,0.1,0.1,0.1,0.2c0,0,0.5,2-0.7,2
							c-1.1,0-4.9-1.6-5-1.6c-1.5-1.3-3-3-4.1-5.4h-0.6c0,0,1.3,3.3,3.8,6.2c0.7,0.9-0.5,2.1,1.4,4.3c2.2,2.4,4.1,4.6,6.9,5
							c1.5,0.2,2.8-0.7,3.7-1.6c0.5-0.4,3.6,0.2,5.2,1.1c1.4,0.8,3.2,1.1,3.6,1.2v3.7h25.5h6.2h10.3h6.2h25.5v-3.7
							c0.4-0.1,2.2-0.4,3.6-1.2c1.5-0.9,4.7-1.5,5.2-1.1c0.9,0.8,2.2,1.8,3.7,1.6c2.8-0.4,4.7-2.6,6.9-5c2-2.2,0.7-3.5,1.4-4.3
							C603.5,447.6,604.8,444.2,604.8,444.2z"/>
						<linearGradient id="SVGID_16_" gradientUnits="userSpaceOnUse" x1="543.7971" y1="440.8998" x2="544.7116" y2="412.3959">
							<stop  offset="0" style="stop-color:#FFCDD6"/>
							<stop  offset="0.3975" style="stop-color:#6D8DAF"/>
							<stop  offset="1" style="stop-color:#253A59"/>
						</linearGradient>
						<path class="st16" d="M591.1,426.9H591c-0.1,0-0.2,0.1-0.2,0.2c-1.8,5.9-6,5.4-6.2,5.4c0,0,0,0,0,0l-0.4,0
							c-0.1,0-0.2-0.1-0.2-0.2c0-0.9-0.4-1.5-0.1-2.1c2-3.2,2.8-5.1,3-5.7c0.1-0.1,0-0.3-0.2-0.3c-0.1,0-0.2,0.1-0.2,0.1
							c-2,4.8-5.8,6.3-6.2,6.4c0,0-0.1,0-0.1,0l-3.5-0.3c-0.1,0-0.2-0.1-0.2-0.2v-3.8c0-0.1,0-0.2-0.1-0.2l-9.9-4.6
							c-0.1,0-0.1-0.1-0.1-0.2v-3.8c0,0,0-0.1,0-0.1l0.2-0.6c0-0.1,0.1-0.1,0.2-0.1h0.5c0.1,0,0.2-0.1,0.2-0.2v-0.8
							c0-0.1,0.1-0.2,0.2-0.2h0.6c0.1,0,0.2-0.1,0.2-0.2V414c0-0.1-0.1-0.2-0.2-0.2l-1.1,0c-0.1,0-0.2-0.1-0.2-0.2l0-0.2
							c0-0.1-0.1-0.2-0.2-0.2h-1.3c-0.1,0-0.2,0.1-0.2,0.2l0,0.7c0,0.1-0.1,0.2-0.2,0.2l-2.1,0c-0.1,0-0.2,0.1-0.2,0.2l0,0.4
							c0,0.1-0.1,0.2-0.2,0.2l-1.3,0c-0.1,0-0.2,0.1-0.2,0.2l0,1l0,0.1h-12h-4.7h-4.7h-12l0-0.1l0-1c0-0.1-0.1-0.2-0.2-0.2l-1.3,0
							c-0.1,0-0.2-0.1-0.2-0.2l0-0.4c0-0.1-0.1-0.2-0.2-0.2l-2.1,0c-0.1,0-0.2-0.1-0.2-0.2l0-0.7c0-0.1-0.1-0.2-0.2-0.2h-1.3
							c-0.1,0-0.2,0.1-0.2,0.2l0,0.2c0,0.1-0.1,0.2-0.2,0.2l-1.1,0c-0.1,0-0.2,0.1-0.2,0.2v1.5c0,0.1,0.1,0.2,0.2,0.2h0.6
							c0.1,0,0.2,0.1,0.2,0.2v0.8c0,0.1,0.1,0.2,0.2,0.2h0.5c0.1,0,0.2,0.1,0.2,0.1l0.2,0.6c0,0,0,0.1,0,0.1v3.8
							c0,0.1,0,0.2-0.1,0.2l-9.9,4.6c-0.1,0-0.1,0.1-0.1,0.2v3.8c0,0.1-0.1,0.2-0.2,0.2l-3.5,0.3c0,0-0.1,0-0.1,0
							c-0.5-0.2-4.2-1.6-6.2-6.4c0-0.1-0.1-0.1-0.2-0.1c-0.2,0-0.3,0.1-0.2,0.3c0.3,0.7,1.1,2.5,3,5.7c0.3,0.5-0.1,1.2-0.1,2.1
							c0,0.1-0.1,0.2-0.2,0.2l-0.4,0c0,0,0,0,0,0c-0.2,0-4.4,0.5-6.2-5.4c0-0.1-0.1-0.2-0.2-0.2h-0.1c-0.1,0-0.3,0.1-0.2,0.3
							c0.3,0.8,1.2,3.1,3.3,5.5c0.7,0.9-0.8,1.5,1.3,3.6c1.7,1.7,2.9,2.7,5.3,2.8c1.8,0,3.3-0.5,4.5-1.2c0.1-0.1,0.3,0,0.3,0.1
							c0.2,0.8,0.6,1.4,1,1.7c0.3,0.2,0.5,0.3,1.1,0.4l6.2-0.3h14.9h3.1h5.9h5.9h3.1h14.9l6.2,0.3c0.6,0,0.8-0.2,1.1-0.4
							c0.5-0.4,0.8-0.9,1-1.7c0-0.1,0.2-0.2,0.3-0.1c1.2,0.8,2.7,1.3,4.5,1.2c2.4,0,3.6-1,5.3-2.8c2.1-2.1,0.6-2.7,1.3-3.6
							c2.1-2.4,3-4.7,3.3-5.5C591.4,427.1,591.3,426.9,591.1,426.9z M560.9,419.9c0,0.1-0.1,0.2-0.2,0.2h-16.4h-16.4
							c-0.1,0-0.2-0.1-0.2-0.2v-2.3c0-0.1,0.1-0.2,0.2-0.2h16.4h16.4c0.1,0,0.2,0.1,0.2,0.2V419.9z"/>
					</g>
				</g>
				<g>
					<linearGradient id="SVGID_17_" gradientUnits="userSpaceOnUse" x1="510.0176" y1="532.8254" x2="510.0176" y2="497.3122">
						<stop  offset="0" style="stop-color:#FFCDD6"/>
						<stop  offset="0.3975" style="stop-color:#6D8DAF"/>
						<stop  offset="1" style="stop-color:#253A59"/>
					</linearGradient>
					<path class="st17" d="M522.2,499.1c0-1-0.8-1.8-1.8-1.8h-20.7c-1,0-1.8,0.8-1.8,1.8c0,0.9,0.7,1.7,1.6,1.8l-0.7,31.9h22.4
						l-0.6-31.9C521.5,500.8,522.2,500,522.2,499.1z"/>
					<linearGradient id="SVGID_18_" gradientUnits="userSpaceOnUse" x1="577.1992" y1="532.8254" x2="577.1992" y2="497.3122">
						<stop  offset="0" style="stop-color:#FFCDD6"/>
						<stop  offset="0.3975" style="stop-color:#6D8DAF"/>
						<stop  offset="1" style="stop-color:#253A59"/>
					</linearGradient>
					<path class="st18" d="M589.4,499.1c0-1-0.8-1.8-1.8-1.8h-20.7c-1,0-1.8,0.8-1.8,1.8c0,0.9,0.7,1.7,1.6,1.8l-0.7,31.9h22.4
						l-0.6-31.9C588.7,500.8,589.4,500,589.4,499.1z"/>
				</g>
				<linearGradient id="SVGID_19_" gradientUnits="userSpaceOnUse" x1="335.3749" y1="532.7415" x2="335.3749" y2="477.2942">
					<stop  offset="0" style="stop-color:#FFCDD6"/>
					<stop  offset="0.3975" style="stop-color:#6D8DAF"/>
					<stop  offset="1" style="stop-color:#253A59"/>
				</linearGradient>
				<path class="st19" d="M689.2,515.2l-16.2-4.1c0.4-0.5,0.7-1.2,0.7-2c0-1.5-1.1-2.8-2.5-3.1c-0.2-1.4-1.4-2.5-2.8-2.5
					c-0.4,0-0.7,0.1-1,0.2c-0.2-1.4-1.4-2.4-2.8-2.4c-0.1,0-0.2,0-0.3,0l-0.2,0v-2.8c0-0.4-0.2-0.7-0.5-0.8c0.3-0.1,0.5-0.5,0.5-0.8
					c0-0.5-0.4-0.9-0.9-0.9s-0.9,0.4-0.9,0.9c0,0.4,0.2,0.7,0.5,0.8c-0.3,0.1-0.5,0.5-0.5,0.8v2.4l-0.9-0.2v-2.3
					c0-0.4-0.2-0.7-0.5-0.8c0.3-0.1,0.5-0.5,0.5-0.8c0-0.5-0.4-0.9-0.9-0.9c-0.5,0-0.9,0.4-0.9,0.9c0,0.4,0.2,0.7,0.5,0.8
					c-0.3,0.1-0.5,0.5-0.5,0.8v1.9l-10.6-2.6v-2.8c0-0.4-0.2-0.7-0.5-0.8c0.3-0.1,0.5-0.5,0.5-0.8c0-0.5-0.4-0.9-0.9-0.9
					s-0.9,0.4-0.9,0.9c0,0.4,0.2,0.7,0.5,0.8c-0.3,0.1-0.5,0.5-0.5,0.8v2.3l-1.2-0.3v-2.2c0-0.4-0.2-0.7-0.5-0.8
					c0.3-0.1,0.5-0.5,0.5-0.8c0-0.5-0.4-0.9-0.9-0.9s-0.9,0.4-0.9,0.9c0,0.4,0.2,0.7,0.5,0.8c-0.3,0.1-0.5,0.5-0.5,0.8v1.8
					l-10.4-2.6v-3c0-0.4-0.2-0.7-0.5-0.8c0.3-0.1,0.5-0.5,0.5-0.8c0-0.5-0.4-0.9-0.9-0.9s-0.9,0.4-0.9,0.9c0,0.4,0.2,0.7,0.5,0.8
					c-0.3,0.1-0.5,0.5-0.5,0.8v2.5l-1.2-0.3v-2.4c0-0.4-0.2-0.7-0.5-0.8c0.3-0.1,0.5-0.5,0.5-0.8c0-0.5-0.4-0.9-0.9-0.9
					s-0.9,0.4-0.9,0.9c0,0.4,0.2,0.7,0.5,0.8c-0.3,0.1-0.5,0.5-0.5,0.8v1.9l-10.4-2.6V487c0-0.4-0.2-0.7-0.5-0.8
					c0.3-0.1,0.5-0.5,0.5-0.8c0-0.5-0.4-0.9-0.9-0.9c-0.5,0-0.9,0.4-0.9,0.9c0,0.4,0.2,0.7,0.5,0.8c-0.3,0.1-0.5,0.5-0.5,0.8v2.5
					l-1.4-0.3v-2.3c0-0.4-0.2-0.7-0.5-0.8c0.3-0.1,0.5-0.5,0.5-0.8c0-0.5-0.4-0.9-0.9-0.9s-0.9,0.4-0.9,0.9c0,0.4,0.2,0.7,0.5,0.8
					c-0.3,0.1-0.5,0.5-0.5,0.8v1.9l-10.2-2.5v-2.9c0-0.4-0.2-0.7-0.5-0.8c0.3-0.1,0.5-0.5,0.5-0.8c0-0.5-0.4-0.9-0.9-0.9
					c-0.5,0-0.9,0.4-0.9,0.9c0,0.4,0.2,0.7,0.5,0.8c-0.3,0.1-0.5,0.5-0.5,0.8v2.5l-1.5-0.4v-2.3c0-0.4-0.2-0.7-0.5-0.8
					c0.3-0.1,0.5-0.5,0.5-0.8c0-0.5-0.4-0.9-0.9-0.9c-0.5,0-0.9,0.4-0.9,0.9c0,0.4,0.2,0.7,0.5,0.8c-0.3,0.1-0.5,0.5-0.5,0.8v1.8
					l-9.2-2.3v-2.3c0-0.4-0.3-0.7-0.7-0.8c0.4-0.1,0.7-0.5,0.7-0.8c0-0.5-0.5-0.9-1.2-0.9s-1.2,0.4-1.2,0.9c0,0.4,0.3,0.7,0.7,0.8
					c-0.4,0.1-0.7,0.5-0.7,0.8v2H585h-1v-2.3c0-0.4-0.3-0.7-0.7-0.8c0.4-0.1,0.7-0.5,0.7-0.8c0-0.5-0.5-0.9-1.2-0.9
					c-0.6,0-1.2,0.4-1.2,0.9c0,0.4,0.3,0.7,0.7,0.8c-0.4,0.1-0.7,0.5-0.7,0.8v2.3h-9.5v-1.8c0-0.4-0.3-0.8-0.7-0.9
					c0.4-0.1,0.7-0.5,0.7-0.9c0-0.5-0.4-0.9-0.9-0.9s-0.9,0.4-0.9,0.9c0,0.4,0.3,0.8,0.7,0.9c-0.4,0.1-0.7,0.5-0.7,0.9v1.8h-4.5
					v-1.4c0-0.4-0.3-0.8-0.7-0.9c0.4-0.1,0.7-0.5,0.7-0.9c0-0.5-0.4-0.9-0.9-0.9s-0.9,0.4-0.9,0.9c0,0.4,0.3,0.8,0.7,0.9
					c-0.4,0.1-0.7,0.5-0.7,0.9v1.4h-8.4v-1.8c0-0.4-0.3-0.8-0.7-0.9c0.4-0.1,0.7-0.5,0.7-0.9c0-0.5-0.4-0.9-0.9-0.9
					s-0.9,0.4-0.9,0.9c0,0.4,0.3,0.8,0.7,0.9c-0.4,0.1-0.7,0.5-0.7,0.9v1.8h-4.2v-1.2c0-0.4-0.3-0.8-0.7-0.9
					c0.4-0.1,0.7-0.5,0.7-0.9c0-0.5-0.4-0.9-0.9-0.9s-0.9,0.4-0.9,0.9c0,0.4,0.3,0.8,0.7,0.9c-0.4,0.1-0.7,0.5-0.7,0.9v1.2h-8.5V480
					c0-0.4-0.3-0.8-0.7-0.9c0.4-0.1,0.7-0.5,0.7-0.9c0-0.5-0.4-0.9-0.9-0.9s-0.9,0.4-0.9,0.9c0,0.4,0.3,0.8,0.7,0.9
					c-0.4,0.1-0.7,0.5-0.7,0.9v2.4h-4.1v-1.5c0-0.4-0.3-0.8-0.7-0.9c0.4-0.1,0.7-0.5,0.7-0.9c0-0.5-0.4-0.9-0.9-0.9
					s-0.9,0.4-0.9,0.9c0,0.4,0.3,0.8,0.7,0.9c-0.4,0.1-0.7,0.5-0.7,0.9v1.5h-9v-2.1c0-0.4-0.3-0.8-0.7-0.9c0.4-0.1,0.7-0.5,0.7-0.9
					c0-0.5-0.4-0.9-0.9-0.9c-0.5,0-0.9,0.4-0.9,0.9c0,0.4,0.3,0.8,0.7,0.9c-0.4,0.1-0.7,0.5-0.7,0.9v2.1h-3.5v-1.7
					c0-0.4-0.3-0.8-0.7-0.9c0.4-0.1,0.7-0.5,0.7-0.9c0-0.5-0.4-0.9-0.9-0.9c-0.5,0-0.9,0.4-0.9,0.9c0,0.4,0.3,0.8,0.7,0.9
					c-0.4,0.1-0.7,0.5-0.7,0.9v1.7h-9.3v-2.3c0-0.4-0.3-0.7-0.7-0.8c0.4-0.1,0.7-0.5,0.7-0.8c0-0.5-0.5-0.9-1.2-0.9
					c-0.6,0-1.2,0.4-1.2,0.9c0,0.4,0.3,0.7,0.7,0.8c-0.4,0.1-0.7,0.5-0.7,0.8v2.3h-1h-1.2v-2c0-0.4-0.3-0.7-0.7-0.8
					c0.4-0.1,0.7-0.5,0.7-0.8c0-0.5-0.5-0.9-1.2-0.9c-0.6,0-1.2,0.4-1.2,0.9c0,0.4,0.3,0.7,0.7,0.8c-0.4,0.1-0.7,0.5-0.7,0.8v2.3
					L490,485v-1.8c0-0.4-0.2-0.7-0.5-0.8c0.3-0.1,0.5-0.5,0.5-0.8c0-0.5-0.4-0.9-0.9-0.9c-0.5,0-0.9,0.4-0.9,0.9
					c0,0.4,0.2,0.7,0.5,0.8c-0.3,0.1-0.5,0.5-0.5,0.8v2.3l-1.5,0.4v-2.5c0-0.4-0.2-0.7-0.5-0.8c0.3-0.1,0.5-0.5,0.5-0.8
					c0-0.5-0.4-0.9-0.9-0.9c-0.5,0-0.9,0.4-0.9,0.9c0,0.4,0.2,0.7,0.5,0.8c-0.3,0.1-0.5,0.5-0.5,0.8v2.9l-10.2,2.5v-1.9
					c0-0.4-0.2-0.7-0.5-0.8c0.3-0.1,0.5-0.5,0.5-0.8c0-0.5-0.4-0.9-0.9-0.9c-0.5,0-0.9,0.4-0.9,0.9c0,0.4,0.2,0.7,0.5,0.8
					c-0.3,0.1-0.5,0.5-0.5,0.8v2.3l-1.4,0.3V487c0-0.4-0.2-0.7-0.5-0.8c0.3-0.1,0.5-0.5,0.5-0.8c0-0.5-0.4-0.9-0.9-0.9
					c-0.5,0-0.9,0.4-0.9,0.9c0,0.4,0.2,0.7,0.5,0.8c-0.3,0.1-0.5,0.5-0.5,0.8v2.9l-10.4,2.6v-1.9c0-0.4-0.2-0.7-0.5-0.8
					c0.3-0.1,0.5-0.5,0.5-0.8c0-0.5-0.4-0.9-0.9-0.9c-0.5,0-0.9,0.4-0.9,0.9c0,0.4,0.2,0.7,0.5,0.8c-0.3,0.1-0.5,0.5-0.5,0.8v2.4
					l-1.2,0.3v-2.5c0-0.4-0.2-0.7-0.5-0.8c0.3-0.1,0.5-0.5,0.5-0.8c0-0.5-0.4-0.9-0.9-0.9c-0.5,0-0.9,0.4-0.9,0.9
					c0,0.4,0.2,0.7,0.5,0.8c-0.3,0.1-0.5,0.5-0.5,0.8v3l-10.4,2.6v-1.8c0-0.4-0.2-0.7-0.5-0.8c0.3-0.1,0.5-0.5,0.5-0.8
					c0-0.5-0.4-0.9-0.9-0.9c-0.5,0-0.9,0.4-0.9,0.9c0,0.4,0.2,0.7,0.5,0.8c-0.3,0.1-0.5,0.5-0.5,0.8v2.2l-1.2,0.3v-2.3
					c0-0.4-0.2-0.7-0.5-0.8c0.3-0.1,0.5-0.5,0.5-0.8c0-0.5-0.4-0.9-0.9-0.9c-0.5,0-0.9,0.4-0.9,0.9c0,0.4,0.2,0.7,0.5,0.8
					c-0.3,0.1-0.5,0.5-0.5,0.8v2.8l-10.6,2.6v-1.9c0-0.4-0.2-0.7-0.5-0.8c0.3-0.1,0.5-0.5,0.5-0.8c0-0.5-0.4-0.9-0.9-0.9
					s-0.9,0.4-0.9,0.9c0,0.4,0.2,0.7,0.5,0.8c-0.3,0.1-0.5,0.5-0.5,0.8v2.3l-0.9,0.2v-2.4c0-0.4-0.2-0.7-0.5-0.8
					c0.3-0.1,0.5-0.5,0.5-0.8c0-0.5-0.4-0.9-0.9-0.9c-0.5,0-0.9,0.4-0.9,0.9c0,0.4,0.2,0.7,0.5,0.8c-0.3,0.1-0.5,0.5-0.5,0.8v2.8
					l-0.2,0c-0.1,0-0.2,0-0.3,0c-1.4,0-2.6,1-2.8,2.4c-0.3-0.1-0.7-0.2-1-0.2c-1.5,0-2.7,1.1-2.8,2.5c-1.5,0.3-2.5,1.6-2.5,3.1
					c0,1.4,0.9,2.5,2.1,3l-12.2,3.1h-774.9v17.5h761.6h79.8v-12.1v-15l33.3-8h40.4h4.7h40.4l26.2,6.3v16.7v12.1h79.8h346.3v-10.9
					v-1.2v-5.5H689.2z"/>
			</g>
			<path class="st20" d="M689.2,544.3l-16.2,2.6c0.4,0.4,0.7,0.8,0.7,1.3c0,1-1.1,1.8-2.5,2c-0.2,0.9-1.4,1.6-2.8,1.6
				c-0.4,0-0.7,0-1-0.1c-0.2,0.9-1.4,1.6-2.8,1.6c-0.1,0-0.2,0-0.3,0l-0.2,0v1.8c0,0.2-0.2,0.4-0.5,0.5c0.3,0.1,0.5,0.3,0.5,0.5
				c0,0.3-0.4,0.6-0.9,0.6c-0.5,0-0.9-0.3-0.9-0.6c0-0.2,0.2-0.4,0.5-0.5c-0.3-0.1-0.5-0.3-0.5-0.5v-1.5l-0.9,0.1v1.5
				c0,0.2-0.2,0.4-0.5,0.5c0.3,0.1,0.5,0.3,0.5,0.5c0,0.3-0.4,0.6-0.9,0.6c-0.5,0-0.9-0.3-0.9-0.6c0-0.2,0.2-0.4,0.5-0.5
				c-0.3-0.1-0.5-0.3-0.5-0.5V554l-10.6,1.7v1.8c0,0.2-0.2,0.4-0.5,0.5c0.3,0.1,0.5,0.3,0.5,0.5c0,0.3-0.4,0.6-0.9,0.6
				c-0.5,0-0.9-0.3-0.9-0.6c0-0.2,0.2-0.4,0.5-0.5c-0.3-0.1-0.5-0.3-0.5-0.5V556l-1.2,0.2v1.4c0,0.2-0.2,0.4-0.5,0.5
				c0.3,0.1,0.5,0.3,0.5,0.5c0,0.3-0.4,0.6-0.9,0.6c-0.5,0-0.9-0.3-0.9-0.6c0-0.2,0.2-0.4,0.5-0.5c-0.3-0.1-0.5-0.3-0.5-0.5v-1.1
				l-10.4,1.7v1.9c0,0.2-0.2,0.4-0.5,0.5c0.3,0.1,0.5,0.3,0.5,0.5c0,0.3-0.4,0.6-0.9,0.6s-0.9-0.3-0.9-0.6c0-0.2,0.2-0.4,0.5-0.5
				c-0.3-0.1-0.5-0.3-0.5-0.5v-1.6l-1.2,0.2v1.6c0,0.2-0.2,0.4-0.5,0.5c0.3,0.1,0.5,0.3,0.5,0.5c0,0.3-0.4,0.6-0.9,0.6
				c-0.5,0-0.9-0.3-0.9-0.6c0-0.2,0.2-0.4,0.5-0.5c-0.3-0.1-0.5-0.3-0.5-0.5V559l-10.4,1.7v1.9c0,0.2-0.2,0.4-0.5,0.5
				c0.3,0.1,0.5,0.3,0.5,0.5c0,0.3-0.4,0.6-0.9,0.6c-0.5,0-0.9-0.3-0.9-0.6c0-0.2,0.2-0.4,0.5-0.5c-0.3-0.1-0.5-0.3-0.5-0.5v-1.6
				l-1.4,0.2v1.5c0,0.2-0.2,0.4-0.5,0.5c0.3,0.1,0.5,0.3,0.5,0.5c0,0.3-0.4,0.6-0.9,0.6s-0.9-0.3-0.9-0.6c0-0.2,0.2-0.4,0.5-0.5
				c-0.3-0.1-0.5-0.3-0.5-0.5v-1.2l-10.1,1.6v1.9c0,0.2-0.2,0.4-0.5,0.5c0.3,0.1,0.5,0.3,0.5,0.5c0,0.3-0.4,0.6-0.9,0.6
				c-0.5,0-0.9-0.3-0.9-0.6c0-0.2,0.2-0.4,0.5-0.5c-0.3-0.1-0.5-0.3-0.5-0.5v-1.6l-1.5,0.2v1.5c0,0.2-0.2,0.4-0.5,0.5
				c0.3,0.1,0.5,0.3,0.5,0.5c0,0.3-0.4,0.6-0.9,0.6c-0.5,0-0.9-0.3-0.9-0.6c0-0.2,0.2-0.4,0.5-0.5c-0.3-0.1-0.5-0.3-0.5-0.5v-1.2
				l-9.2,1.5v1.5c0,0.2-0.3,0.4-0.7,0.5c0.4,0.1,0.7,0.3,0.7,0.5c0,0.3-0.5,0.6-1.2,0.6c-0.6,0-1.2-0.3-1.2-0.6
				c0-0.2,0.3-0.4,0.7-0.5c-0.4-0.1-0.7-0.3-0.7-0.5v-1.3H585h-1v1.5c0,0.2-0.3,0.4-0.7,0.5c0.4,0.1,0.7,0.3,0.7,0.5
				c0,0.3-0.5,0.6-1.2,0.6c-0.6,0-1.2-0.3-1.2-0.6c0-0.2,0.3-0.4,0.7-0.5c-0.4-0.1-0.7-0.3-0.7-0.5v-1.5h-2.1v8.8v3h0.5v2.4
				c0.4,0,2.2,0.2,3.6,0.8c1.5,0.6,4.7,1,5.2,0.7c0.9-0.5,2.2-1.2,3.7-1c2.8,0.3,4.7,1.7,6.9,3.2c2,1.4,0.7,2.2,1.4,2.8
				c2.5,1.9,3.8,4,3.8,4h-0.6c-1.1-1.6-2.6-2.7-4.1-3.5c-0.1,0-3.8-1-5-1.1c-1.2,0-0.7,1.3-0.7,1.3c0,0.1,0.1,0.1,0.1,0.1
				c2.3,2.4,3.3,4,3.5,4.3h-0.6c-2.1-3.4-6.3-4.5-6.3-4.5l-1.6-0.2c0,0-6.3-0.2-6.9,0c-0.4,0.2-5.8,1.7-9.2,2.7l-2.1,0.6h0.1v3.2
				l3.1-0.1c0.6,0,0.8,0.1,1.1,0.2c0.5,0.2,0.8,0.6,1,1.1c0,0.1,0.2,0.1,0.3,0.1c1.2-0.5,2.7-0.8,4.5-0.8c2.4,0,3.6,0.7,5.3,1.8
				c2.1,1.3,0.6,1.8,1.3,2.3c2.1,1.5,3,3,3.3,3.6c0.1,0.1-0.1,0.2-0.2,0.2H591c-0.1,0-0.2,0-0.2-0.1c-1.8-3.8-6-3.5-6.2-3.5
				c0,0,0,0,0,0l-0.4,0c-0.1,0-0.2,0.1-0.2,0.1c0,0.6-0.4,1-0.1,1.3c2,2.1,2.8,3.3,3,3.7c0.1,0.1,0,0.2-0.2,0.2
				c-0.1,0-0.2,0-0.2-0.1c-2-3.1-5.8-4.1-6.2-4.2c0,0-0.1,0-0.1,0l-3.5,0.2c-0.1,0-0.2,0.1-0.2,0.1v2.5c0,0.1,0,0.1-0.1,0.1l-9.9,3
				c-0.1,0-0.1,0.1-0.1,0.1v2.4c0,0,0,0,0,0.1l0.2,0.4c0,0.1,0.1,0.1,0.2,0.1h0.5c0.1,0,0.2,0.1,0.2,0.1v0.5c0,0.1,0.1,0.1,0.2,0.1
				h0.6c0.1,0,0.2,0.1,0.2,0.1v1c0,0.1-0.1,0.1-0.2,0.1l-1.1,0c-0.1,0-0.2,0.1-0.2,0.1l0,0.1c0,0.1-0.1,0.1-0.2,0.1h-1.3
				c-0.1,0-0.2-0.1-0.2-0.1l0-0.4c0-0.1-0.1-0.1-0.2-0.1l-2.1,0c-0.1,0-0.2-0.1-0.2-0.1l0-0.3c0-0.1-0.1-0.1-0.2-0.1l-1.3,0
				c-0.1,0-0.2-0.1-0.2-0.1l0-0.6l0-0.1h-12h-4.7h-4.7h-12l0,0.1l0,0.6c0,0.1-0.1,0.1-0.2,0.1l-1.3,0c-0.1,0-0.2,0.1-0.2,0.1l0,0.3
				c0,0.1-0.1,0.1-0.2,0.1l-2.1,0c-0.1,0-0.2,0.1-0.2,0.1l0,0.4c0,0.1-0.1,0.1-0.2,0.1h-1.3c-0.1,0-0.2-0.1-0.2-0.1l0-0.1
				c0-0.1-0.1-0.1-0.2-0.1l-1.1,0c-0.1,0-0.2-0.1-0.2-0.1v-1c0-0.1,0.1-0.1,0.2-0.1h0.6c0.1,0,0.2-0.1,0.2-0.1v-0.5
				c0-0.1,0.1-0.1,0.2-0.1h0.5c0.1,0,0.2,0,0.2-0.1l0.2-0.4c0,0,0,0,0-0.1v-2.4c0-0.1,0-0.1-0.1-0.1l-9.9-3c-0.1,0-0.1-0.1-0.1-0.1
				v-2.5c0-0.1-0.1-0.1-0.2-0.1l-3.5-0.2c0,0-0.1,0-0.1,0c-0.5,0.1-4.2,1.1-6.2,4.2c0,0.1-0.1,0.1-0.2,0.1c-0.2,0-0.3-0.1-0.2-0.2
				c0.3-0.4,1.1-1.6,3-3.7c0.3-0.3-0.1-0.8-0.1-1.3c0-0.1-0.1-0.1-0.2-0.1l-0.4,0c0,0,0,0,0,0c-0.2,0-4.4-0.3-6.2,3.5
				c0,0.1-0.1,0.1-0.2,0.1h-0.1c-0.1,0-0.3-0.1-0.2-0.2c0.3-0.5,1.2-2,3.3-3.6c0.7-0.6-0.8-1,1.3-2.3c1.7-1.1,2.9-1.8,5.3-1.8
				c1.8,0,3.3,0.3,4.5,0.8c0.1,0.1,0.3,0,0.3-0.1c0.2-0.5,0.6-0.9,1-1.1c0.3-0.1,0.5-0.2,1.1-0.2l1.2,0V590h0.1l-2.1-0.6
				c-3.4-1-8.8-2.6-9.2-2.7c-0.7-0.2-6.9,0-6.9,0l-1.6,0.2c0,0-4.2,1.2-6.3,4.5h-0.6c0.2-0.3,1.2-1.8,3.5-4.3c0,0,0.1-0.1,0.1-0.1
				c0,0,0.5-1.3-0.7-1.3c-1.1,0-4.9,1-5,1.1c-1.5,0.8-3,2-4.1,3.5h-0.6c0,0,1.3-2.2,3.8-4c0.7-0.6-0.5-1.4,1.4-2.8
				c2.2-1.6,4.1-3,6.9-3.2c1.5-0.1,2.8,0.5,3.7,1c0.5,0.3,3.6-0.1,5.2-0.7c1.4-0.5,3.2-0.7,3.6-0.8v-2.4h0.8v-3v-8.8h-1.1v1.5
				c0,0.2-0.3,0.4-0.7,0.5c0.4,0.1,0.7,0.3,0.7,0.5c0,0.3-0.5,0.6-1.2,0.6c-0.6,0-1.2-0.3-1.2-0.6c0-0.2,0.3-0.4,0.7-0.5
				c-0.4-0.1-0.7-0.3-0.7-0.5v-1.5h-1h-1.2v1.3c0,0.2-0.3,0.4-0.7,0.5c0.4,0.1,0.7,0.3,0.7,0.5c0,0.3-0.5,0.6-1.2,0.6
				c-0.6,0-1.2-0.3-1.2-0.6c0-0.2,0.3-0.4,0.7-0.5c-0.4-0.1-0.7-0.3-0.7-0.5v-1.5l-9.2-1.5v1.2c0,0.2-0.2,0.4-0.5,0.5
				c0.3,0.1,0.5,0.3,0.5,0.5c0,0.3-0.4,0.6-0.9,0.6c-0.5,0-0.9-0.3-0.9-0.6c0-0.2,0.2-0.4,0.5-0.5c-0.3-0.1-0.5-0.3-0.5-0.5v-1.5
				l-1.5-0.2v1.6c0,0.2-0.2,0.4-0.5,0.5c0.3,0.1,0.5,0.3,0.5,0.5c0,0.3-0.4,0.6-0.9,0.6c-0.5,0-0.9-0.3-0.9-0.6
				c0-0.2,0.2-0.4,0.5-0.5c-0.3-0.1-0.5-0.3-0.5-0.5v-1.9l-10.2-1.6v1.2c0,0.2-0.2,0.4-0.5,0.5c0.3,0.1,0.5,0.3,0.5,0.5
				c0,0.3-0.4,0.6-0.9,0.6c-0.5,0-0.9-0.3-0.9-0.6c0-0.2,0.2-0.4,0.5-0.5c-0.3-0.1-0.5-0.3-0.5-0.5v-1.5l-1.4-0.2v1.6
				c0,0.2-0.2,0.4-0.5,0.5c0.3,0.1,0.5,0.3,0.5,0.5c0,0.3-0.4,0.6-0.9,0.6c-0.5,0-0.9-0.3-0.9-0.6c0-0.2,0.2-0.4,0.5-0.5
				c-0.3-0.1-0.5-0.3-0.5-0.5v-1.9l-10.4-1.7v1.3c0,0.2-0.2,0.4-0.5,0.5c0.3,0.1,0.5,0.3,0.5,0.5c0,0.3-0.4,0.6-0.9,0.6
				c-0.5,0-0.9-0.3-0.9-0.6c0-0.2,0.2-0.4,0.5-0.5c-0.3-0.1-0.5-0.3-0.5-0.5v-1.6l-1.2-0.2v1.6c0,0.2-0.2,0.4-0.5,0.5
				c0.3,0.1,0.5,0.3,0.5,0.5c0,0.3-0.4,0.6-0.9,0.6c-0.5,0-0.9-0.3-0.9-0.6c0-0.2,0.2-0.4,0.5-0.5c-0.3-0.1-0.5-0.3-0.5-0.5v-1.9
				l-10.4-1.7v1.1c0,0.2-0.2,0.4-0.5,0.5c0.3,0.1,0.5,0.3,0.5,0.5c0,0.3-0.4,0.6-0.9,0.6c-0.5,0-0.9-0.3-0.9-0.6
				c0-0.2,0.2-0.4,0.5-0.5c-0.3-0.1-0.5-0.3-0.5-0.5v-1.4l-1.2-0.2v1.5c0,0.2-0.2,0.4-0.5,0.5c0.3,0.1,0.5,0.3,0.5,0.5
				c0,0.3-0.4,0.6-0.9,0.6c-0.5,0-0.9-0.3-0.9-0.6c0-0.2,0.2-0.4,0.5-0.5c-0.3-0.1-0.5-0.3-0.5-0.5v-1.8l-10.6-1.7v1.2
				c0,0.2-0.2,0.4-0.5,0.5c0.3,0.1,0.5,0.3,0.5,0.5c0,0.3-0.4,0.6-0.9,0.6c-0.5,0-0.9-0.3-0.9-0.6c0-0.2,0.2-0.4,0.5-0.5
				c-0.3-0.1-0.5-0.3-0.5-0.5v-1.5l-0.9-0.1v1.5c0,0.2-0.2,0.4-0.5,0.5c0.3,0.1,0.5,0.3,0.5,0.5c0,0.3-0.4,0.6-0.9,0.6
				c-0.5,0-0.9-0.3-0.9-0.6c0-0.2,0.2-0.4,0.5-0.5c-0.3-0.1-0.5-0.3-0.5-0.5v-1.8l-0.2,0c-0.1,0-0.2,0-0.3,0c-1.4,0-2.6-0.7-2.8-1.6
				c-0.3,0.1-0.7,0.1-1,0.1c-1.5,0-2.7-0.7-2.8-1.6c-1.5-0.2-2.5-1-2.5-2c0-0.9,0.9-1.7,2.1-1.9l-12.2-2h-774.9v-11.4h761.6h79.8
				v7.8v9.8l27.3,4.3c0,0,0,0,0-0.1c0-0.6,0.7-1.1,1.6-1.2l-0.7-20.7h22.4l-0.6,20.7c0.9,0.1,1.6,0.6,1.6,1.2c0,0.4-0.3,0.8-0.8,1
				h22.9h4.7h16.9c-0.5-0.2-0.8-0.6-0.8-1c0-0.6,0.7-1.1,1.6-1.2l-0.7-20.7h22.4l-0.6,20.7c0.9,0.1,1.6,0.6,1.6,1.2
				c0,0.4-0.3,0.8-0.8,1h0.8l26.2-4.1v-10.9v-7.8h79.8h346.3v7.1v0.8v3.5H689.2z M576.4,565.6v8.8h1v-8.8H576.4z M566.3,593.3v-1.9
				l-0.1,0H560v1.9H566.3z M562.9,565.6h-1v8.8h1V565.6z M525,565.6h-1v8.8h1V565.6z M554.9,591.4h-6.4h-2.8h-1.3l-1,0l-1,0H541
				h-2.8h-6.7v1.9h3.8h3.1h5.9h5.9h3.1h1.6V591.4z M527.6,607.6c0,0.1,0.1,0.1,0.2,0.1h4.3V606h1.1v1.7h4V606h1.1v1.7h5.9h4.1V606
				h1.1v1.7h4V606h1.1v1.7h6.1c0.1,0,0.2-0.1,0.2-0.1v-1.5c0-0.1-0.1-0.1-0.2-0.1h-16.4h-16.4c-0.1,0-0.2,0.1-0.2,0.1V607.6z
				 M520.3,593.3L520.3,593.3l6.1,0v-1.9h-6l-0.1,0V593.3z M509.4,574.4h1v-8.8h-1V574.4z M521.4,567.5c-0.4-0.1-0.7-0.3-0.7-0.6
				v-1.4h-3.5v1.1c0,0.3-0.3,0.5-0.7,0.6c0.4,0.1,0.7,0.3,0.7,0.6c0,0.3-0.4,0.6-0.9,0.6c-0.5,0-0.9-0.3-0.9-0.6
				c0-0.3,0.3-0.5,0.7-0.6c-0.4-0.1-0.7-0.3-0.7-0.6v-1.1h-2.7v8.8h0.7v3h7.8v-3h0.7v-5.7c-0.1,0-0.1,0-0.2,0
				c-0.5,0-0.9-0.3-0.9-0.6C520.7,567.9,521,567.6,521.4,567.5z M555,567.3c0.4,0.1,0.7,0.3,0.7,0.6c0,0.3-0.4,0.6-0.9,0.6
				s-0.9-0.3-0.9-0.6c0-0.3,0.3-0.5,0.7-0.6c-0.4-0.1-0.7-0.3-0.7-0.6v-1.2h-4.2v0.8c0,0.3-0.3,0.5-0.7,0.6c0.4,0.1,0.7,0.3,0.7,0.6
				c0,0.3-0.4,0.6-0.9,0.6c-0.5,0-0.9-0.3-0.9-0.6c0-0.3,0.3-0.5,0.7-0.6c-0.4-0.1-0.7-0.3-0.7-0.6v-0.8h-8.5v1.5
				c0,0.3-0.3,0.5-0.7,0.6c0.4,0.1,0.7,0.3,0.7,0.6c0,0.3-0.4,0.6-0.9,0.6c-0.5,0-0.9-0.3-0.9-0.6c0-0.3,0.3-0.5,0.7-0.6
				c-0.4-0.1-0.7-0.3-0.7-0.6v-1.5h-4.1v1c0,0.3-0.3,0.5-0.7,0.6c0.4,0.1,0.7,0.3,0.7,0.6c0,0.3-0.4,0.6-0.9,0.6
				c-0.5,0-0.9-0.3-0.9-0.6c0-0.3,0.3-0.5,0.7-0.6c-0.4-0.1-0.7-0.3-0.7-0.6v-1h-4.3v8.8h0.7v3h4.1h6.2h10.3h6.2h4.3v-3h0.7v-8.8
				h-3.9v1.2C555.7,567,555.4,567.3,555,567.3z M565.2,567.1c0.4,0.1,0.7,0.3,0.7,0.6c0,0.3-0.4,0.6-0.9,0.6v6.1h0.7v3h7.8v-3h0.7
				v-8.8h-2v1.2c0,0.3-0.3,0.5-0.7,0.6c0.4,0.1,0.7,0.3,0.7,0.6c0,0.3-0.4,0.6-0.9,0.6c-0.5,0-0.9-0.3-0.9-0.6
				c0-0.3,0.3-0.5,0.7-0.6c-0.4-0.1-0.7-0.3-0.7-0.6v-1.2h-4.5v0.9C565.9,566.8,565.6,567,565.2,567.1z"/>
		</g>
		<g>
			<g>
				<linearGradient id="SVGID_20_" gradientUnits="userSpaceOnUse" x1="409.0648" y1="984.9498" x2="409.0648" y2="690.4053">
					<stop  offset="0" style="stop-color:#FFCDD6"/>
					<stop  offset="0.3975" style="stop-color:#6D8DAF"/>
					<stop  offset="1" style="stop-color:#253A59"/>
				</linearGradient>
				<path class="st21" d="M416.4,690.4c0,0-8.8,156.3-20.7,294.5h4.7c0,0,20.6-193.1,21.9-294.5H416.4z"/>
				<g>
					<path class="st22" d="M326.4,604.9c0,0,4.4-2.2,7.2,0c2.9,2.2,1.1,1.5,5.3,4c4.2,2.4,7,0.9,9.7,2.2c2.6,1.3,6.6,3.1,8.6,3.5
						c2,0.4,6.1,0.7,6.6,2c0.4,1.3-3.7,0.4-4.2,2c-0.4,1.5,1.3,4.2,9.2,3.5c7.9-0.7,6.8-0.7,7.8-1.8c1-1.1,1.1-3.6,5.1-5.4
						s8.6-3.5,11.8-3.1c3.2,0.4,3.8,0.6,5,0.3s3.4-1.8,6.2-1.6c2.8,0.2,5.8,1.2,8.6,1.1s7.1-2.3,10.4-1.8c3.3,0.5,9.5,2.4,12.9,6.3
						c3.5,4,3.7,1.9,7.4,5.1c3.7,3.2,4.4,5.1,6.3,5.4c1.9,0.2,3.5-3.1,8.1-3.5c4.7-0.3,13.9,0.6,17.9,4.3s7.1,10.3,7.3,10.6
						c0.2,0.3,1.2,2.4,3.2,2.9c2,0.5,7.8,1.3,11.1,0c3.3-1.3,4.1-2.6,6.3-1.9c2.1,0.7,6.3,0.7,10.7,8.5c4.4,7.8,7.7,11.9,8.5,12.5
						s1.5,1.2,2.1,2.5s1.6,2.9,3,3.4c1.3,0.5,3.5,2.1,4.4-2.1c0.9-4.2,2.4-6.3,3.6-5.8s2.6,1.7,2.6,4.2s-0.6,3.6,0,5.7
						c0.6,2.1,1,6.8,0,11.1s1.6,4.3,0.6,6.7c-1,2.4-1.6,4.6-2.4,4.5c-0.9-0.1-4.9-2.4-5.6-2.5c-0.7-0.1-32.7-2.4-41-0.9
						c-8.3,1.5-58.5,14.9-68.9,12.5c-18.9-4.4-26.2-25.3-45.7-47.3C363.3,637.3,326.4,604.9,326.4,604.9z"/>
					<linearGradient id="SVGID_21_" gradientUnits="userSpaceOnUse" x1="402.0171" y1="628.203" x2="402.0171" y2="575.5236">
						<stop  offset="0" style="stop-color:#FFCDD6"/>
						<stop  offset="0.3975" style="stop-color:#6D8DAF"/>
						<stop  offset="1" style="stop-color:#253A59"/>
					</linearGradient>
					<path class="st23" d="M333.7,604.9c2.9,2.2,1.1,1.5,5.3,4c4.2,2.4,7,0.9,9.7,2.2c2.6,1.3,6.6,3.1,8.6,3.5c2,0.4,6.1,0.7,6.6,2
						c0.4,1.3-3.7,0.4-4.2,2c-0.4,1.5,1.3,4.2,9.2,3.5c7.9-0.7,6.8-0.7,7.8-1.8c1-1.1,1.1-3.6,5.1-5.4s8.6-3.5,11.8-3.1
						c3.2,0.4,3.8,0.6,5,0.3s3.4-1.8,6.2-1.6c2.8,0.2,5.8,1.2,8.6,1.1s7.1-2.3,10.4-1.8c3.3,0.5,9.5,2.4,12.9,6.3
						c3.5,4,3.7,1.9,7.4,5.1c3.7,3.2,4.4,5.1,6.3,5.4c1.9,0.2,3.5-3.1,8.1-3.5c4.7-0.3,13.9,0.6,17.9,4.3c0.4,0.3,0.7,0.7,1,1
						c0.1-0.5,0.1-0.9,0.2-1.4c1-7.7-5.8-14-9.9-17.9c-4.1-4-2-7.7-8.6-11.4s-4.9-0.2-11.4-3c-10.8-4.7-8.4-12.5-25.7-14.5
						c-7.5-0.9-8.1,2.3-18.9,1.8c-10.9-0.5-6.4-5.6-15-6.3c-4.1-0.3-5.8,1.6-14,2.6c-8.3,1-13.6,0.3-22.7,3.1
						c-9.1,2.8-5.7,6.4-11.2,9.2c-6.2,3.2-5.8,2.1-8.7,4.9c-1.4,1.4-2,4.3-3.6,5.8s-1.4,3.6-1.4,3.6S330.8,602.7,333.7,604.9z"/>
				</g>
			</g>
			<g>
				<linearGradient id="SVGID_22_" gradientUnits="userSpaceOnUse" x1="897.2859" y1="813.5345" x2="897.2859" y2="689.1031">
					<stop  offset="0" style="stop-color:#FFCDD6"/>
					<stop  offset="0.3975" style="stop-color:#6D8DAF"/>
					<stop  offset="1" style="stop-color:#253A59"/>
				</linearGradient>
				<path class="st24" d="M759.4,779c0,0-0.5,4.3-1.3,8s-2.8,16,6.3,19.3s13.5-3.8,25.5-7s15.8-4.3,18.5-4.3s8.3-0.7,9.3-2
					c1-1.3,3.8-8,12.5-7.3s19,4,21,10.5s4.3,12.5,14,16s10.8-1.3,12.5-3.5s20.5-16.5,28.5-19.3s18.3-7.8,33,3.3s32,2.8,35.8-3
					s4.3-15,34-1.8c29.7,13.3,18,19.5,33,21.5s9.1-26,18-32.3c4.5-3.1,6,7.6,16.5,5c7.3-1.8,0.8-9.9,4.5-13c4.6-3.9,7.3,6,9,4
					s-0.3-8.3,0-12s-3.5-1.3-3.5-1.3s-1.8-4.3-5.3-2.5s4-8.3-17.5-16.8l-3.8,4.8c0,0-7.3-3.3-10.5-1s-2.5,8.5-9.3,9.5
					s-17-12.5-40.2-23.5s-34.8-1.8-36,3.5s-4.8,13-12.5,15.5s-14.8-4.5-23.3-5.8s-12.5,2-21.5-5.5s3.8-11.8-9-22s-20.8-17-51.3-13.8
					c0,0-3.1,0.8-2.5-3.6s-10.6-5.3-21.3-2.9s-16.4,10.6-16.4,10.6s-20.3-1-22-0.5s-2.3-8.5-3-8.6s-5.3-1.9-15.8,0.4
					c0,0-3.3-0.3-5.1-7.1s-21.1,9.5-23.6,9.6s-7.1-3.4-10.4-1.3s1.3,1.4-4.6,4.3s-17.4,8.1-17.9,13.4c-0.3,3.1,1,4.1,1,4.1
					s5.9-9.3,10.4-8.1s-2.4,4.1-0.1,6.6s15.4-1.5,15.1,8.1c-0.1,4.6-6.6,4.6-8.5,19.3c-1.4,10.8,22.5-0.1,29.1,7.8
					S759.8,772.5,759.4,779z"/>
				<g>
					<path class="st22" d="M1059.9,777.3c-3,2.1-4.3,6.7-5.4,11.8c4.4-2.1,12.9-5.7,19.7-6.4l0,0
						C1065.7,783.4,1064.1,774.4,1059.9,777.3z"/>
					<rect x="1089.9" y="773.3" class="st22" width="0" height="0"/>
					<path class="st22" d="M1080.9,769.3c-2,1.7-1.1,4.8-0.9,7.6h0c0,0,2.8-3.9,8.6-3.7C1087,771.7,1084.6,766.3,1080.9,769.3z"/>
				</g>
				<g>
					<path class="st22" d="M715.2,719.4c-2.3-2.5,4.6-5.5,0.1-6.6c-3.9-1-8.8,5.7-10,7.6c3.2,1.9,13.4,8.3,20,15.2
						c2.4-4,5-5.1,5.1-8C730.6,717.9,717.4,721.9,715.2,719.4z"/>
					<path class="st22" d="M704.3,719.8L704.3,719.8C704.3,719.8,704.3,719.8,704.3,719.8C704.3,719.8,704.3,719.8,704.3,719.8z"/>
					<path class="st22" d="M759.4,779c0.4-6.5-1.9-16.6-8.5-24.5c-3.6-4.3-12.4-3-19.4-2.7c6.7,6.2,21.7,20.7,27.6,29.8
						C759.3,780.1,759.4,779,759.4,779z"/>
				</g>
				<path class="st22" d="M1008.9,788c-29.8-13.3-30.3-4-34,1.8s-21,14-35.8,3s-25-6-33-3.3s-26.8,17-28.5,19.3s-2.8,7-12.5,3.5
					s-12-9.5-14-16s-12.3-9.8-21-10.5s-11.5,6-12.5,7.3s-6.5,2-9.3,2s-6.5,1-18.5,4.3c-9.2,2.5-14,7.2-19.9,7.8
					c0,0,17.9,2.8,30.9,12.5c13,9.7,46.7,46.7,75.7,48.7s111.1-43.7,129-58c15.1-12.1,25.3-5.9,28.1-3.8
					C1030.2,803,1029.6,797.2,1008.9,788z"/>
				<linearGradient id="SVGID_23_" gradientUnits="userSpaceOnUse" x1="865.7344" y1="937.6542" x2="887.7732" y2="937.6542">
					<stop  offset="0" style="stop-color:#FFCDD6"/>
					<stop  offset="0.3975" style="stop-color:#6D8DAF"/>
					<stop  offset="1" style="stop-color:#253A59"/>
				</linearGradient>
				<path class="st25" d="M876.6,868.2c0,0-0.1,0-0.1,0c-2.2,19-12.3,106.9-10.6,139.8h11c0,0,0.5-96.8,10.8-140.8
					C883.5,868.1,879.8,868.4,876.6,868.2z"/>
			</g>
			<g>
				
					<linearGradient id="SVGID_24_" gradientUnits="userSpaceOnUse" x1="1103.368" y1="743.6976" x2="1103.368" y2="656.0449" gradientTransform="matrix(-1 0 0 1 2083.2498 0)">
					<stop  offset="0" style="stop-color:#FFCDD6"/>
					<stop  offset="0.3975" style="stop-color:#6D8DAF"/>
					<stop  offset="1" style="stop-color:#253A59"/>
				</linearGradient>
				<path class="st26" d="M1077,719.4c0,0,0.4,3,0.9,5.6c0.5,2.6,1.9,11.3-4.4,13.6c-6.3,2.3-9.5-2.6-18-4.9c-8.5-2.3-11.1-3-13-3
					s-5.8-0.5-6.5-1.4c-0.7-0.9-2.6-5.7-8.8-5.1s-13.4,2.8-14.8,7.4c-1.4,4.6-3,8.8-9.9,11.3c-6.9,2.5-7.6-0.9-8.8-2.5
					c-1.2-1.6-14.4-11.6-20.1-13.6c-5.6-1.9-12.9-5.5-23.2,2.3c-10.4,7.7-22.5,1.9-25.2-2.1c-2.6-4.1-3-10.6-24-1.2
					c-21,9.3-12.7,13.7-23.2,15.1s-6.4-18.3-12.7-22.7c-3.2-2.2-4.2,5.4-11.6,3.5c-5.1-1.3-0.5-7-3.2-9.2c-3.3-2.7-5.1,4.2-6.3,2.8
					c-1.2-1.4,0.2-5.8,0-8.5c-0.2-2.6,2.5-0.9,2.5-0.9s1.2-3,3.7-1.8c2.5,1.2-2.8-5.8,12.3-11.8l2.6,3.3c0,0,5.1-2.3,7.4-0.7
					c2.3,1.6,1.8,6,6.5,6.7c4.8,0.7,12-8.8,28.4-16.6c16.4-7.7,24.5-1.2,25.4,2.5c0.9,3.7,3.3,9.2,8.8,10.9
					c5.5,1.8,10.4-3.2,16.4-4.1c6-0.9,8.8,1.4,15.1-3.9c6.3-5.3-2.6-8.3,6.3-15.5c9-7.2,14.6-12,36.1-9.7c0,0,2.2,0.5,1.8-2.6
					c-0.4-3.1,7.5-3.7,15-2c7.5,1.7,11.5,7.5,11.5,7.5s14.3-0.7,15.5-0.4s1.6-6,2.1-6.1c0.5-0.1,3.7-1.3,11.1,0.3c0,0,2.3-0.2,3.6-5
					c1.3-4.8,14.9,6.7,16.6,6.8c1.8,0.1,5-2.4,7.3-0.9c2.3,1.5-0.9,1,3.3,3c4.1,2,12.3,5.7,12.6,9.4c0.2,2.2-0.7,2.9-0.7,2.9
					s-4.1-6.5-7.3-5.7s1.7,2.9,0.1,4.7c-1.6,1.8-10.8-1.1-10.7,5.7c0.1,3.3,4.7,3.3,6,13.6c1,7.6-15.8-0.1-20.5,5.5
					C1078.3,707.7,1076.7,714.8,1077,719.4z"/>
				<g>
					<path class="st22" d="M865.3,718.2c2.1,1.5,3.1,4.7,3.8,8.3c-3.1-1.4-9.1-4-13.9-4.5l0,0C861.2,722.5,862.4,716.1,865.3,718.2z
						"/>
					<rect x="844.2" y="715.3" class="st22" width="0" height="0"/>
					<path class="st22" d="M850.5,712.5c1.4,1.2,0.7,3.4,0.6,5.3h0c0,0-2-2.8-6.1-2.6C846.3,714.2,847.9,710.4,850.5,712.5z"/>
				</g>
				<g>
					<path class="st22" d="M1108.2,677.4c1.6-1.8-3.3-3.9-0.1-4.7c2.7-0.7,6.2,4,7.1,5.4c-2.3,1.4-9.4,5.8-14.1,10.7
						c-1.7-2.9-3.5-3.6-3.6-5.7C1097.3,676.3,1106.6,679.2,1108.2,677.4z"/>
					<polygon class="st22" points="1115.9,677.7 1115.9,677.7 1115.9,677.7 					"/>
					<path class="st22" d="M1077,719.4c-0.3-4.6,1.3-11.7,6-17.3c2.6-3,8.8-2.1,13.7-1.9c-4.7,4.4-15.3,14.6-19.4,21
						C1077.1,720.2,1077,719.4,1077,719.4z"/>
				</g>
				<path class="st22" d="M901.2,725.7c21-9.3,21.3-2.8,24,1.2c2.6,4.1,14.8,9.9,25.2,2.1c10.4-7.7,17.6-4.2,23.2-2.3
					c5.6,1.9,18.8,12,20.1,13.6s1.9,4.9,8.8,2.5c6.9-2.5,8.5-6.7,9.9-11.3c1.4-4.6,8.6-6.9,14.8-7.4s8.1,4.2,8.8,5.1
					c0.7,0.9,4.6,1.4,6.5,1.4s4.6,0.7,13,3c6.5,1.8,9.9,5.1,14,5.5c0,0-12.6,2-21.7,8.8c-9.2,6.8-32.9,32.9-53.3,34.3
					s-78.3-30.8-90.9-40.9c-10.7-8.5-17.9-4.2-19.8-2.7C886.2,736.3,886.7,732.2,901.2,725.7z"/>
				
					<linearGradient id="SVGID_25_" gradientUnits="userSpaceOnUse" x1="1081.1423" y1="831.1307" x2="1096.667" y2="831.1307" gradientTransform="matrix(-1 0 0 1 2083.2498 0)">
					<stop  offset="0" style="stop-color:#FFCDD6"/>
					<stop  offset="0.3975" style="stop-color:#6D8DAF"/>
					<stop  offset="1" style="stop-color:#253A59"/>
				</linearGradient>
				<path class="st27" d="M994.4,782.2C994.5,782.2,994.5,782.2,994.4,782.2c1.7,13.4,8.8,75.3,7.5,98.5h-7.7c0,0-0.3-68.2-7.6-99.2
					C989.6,782.1,992.2,782.4,994.4,782.2z"/>
			</g>
			<g>
				
					<linearGradient id="SVGID_26_" gradientUnits="userSpaceOnUse" x1="2119.2305" y1="714.4193" x2="2119.2305" y2="644.5223" gradientTransform="matrix(-1 0 0 1 2265.7478 0)">
					<stop  offset="0" style="stop-color:#FFCDD6"/>
					<stop  offset="0.3975" style="stop-color:#6D8DAF"/>
					<stop  offset="1" style="stop-color:#253A59"/>
				</linearGradient>
				<path class="st28" d="M223.9,695c0,0,0.3,2.4,0.7,4.5c0.4,2.1,1.5,9-3.5,10.8c-5.1,1.8-7.6-2.1-14.3-3.9s-8.8-2.4-10.4-2.4
					c-1.5,0-4.6-0.4-5.2-1.1c-0.6-0.7-2.1-4.5-7-4.1c-4.9,0.4-10.7,2.2-11.8,5.9c-1.1,3.7-2.4,7-7.9,9c-5.5,2-6-0.7-7-2
					s-11.5-9.3-16-10.8c-4.5-1.5-10.3-4.4-18.5,1.8c-8.3,6.2-18,1.5-20.1-1.7c-2.1-3.2-2.4-8.4-19.1-1c-16.7,7.4-10.1,11-18.5,12.1
					c-8.4,1.1-5.1-14.6-10.1-18.1c-2.5-1.8-3.4,4.3-9.3,2.8c-4.1-1-0.4-5.5-2.5-7.3c-2.6-2.2-4.1,3.4-5.1,2.2c-1-1.1,0.1-4.6,0-6.7
					c-0.1-2.1,2-0.7,2-0.7s1-2.4,2.9-1.4s-2.2-4.6,9.8-9.4l2.1,2.7c0,0,4.1-1.8,5.9-0.6c1.8,1.3,1.4,4.8,5.2,5.3
					c3.8,0.6,9.5-7,22.6-13.2c13.1-6.2,19.5-1,20.2,2s2.7,7.3,7,8.7c4.4,1.4,8.3-2.5,13.1-3.2c4.8-0.7,7,1.1,12.1-3.1
					c5.1-4.2-2.1-6.6,5.1-12.4s11.7-9.5,28.8-7.7c0,0,1.8,0.4,1.4-2c-0.4-2.5,6-2.9,11.9-1.6c6,1.3,9.2,6,9.2,6s11.4-0.6,12.4-0.3
					c1,0.3,1.3-4.8,1.7-4.8c0.4-0.1,2.9-1.1,8.8,0.2c0,0,1.8-0.1,2.9-4c1.1-3.9,11.9,5.3,13.3,5.4s4-1.9,5.8-0.7
					c1.8,1.2-0.7,0.8,2.6,2.4c3.3,1.6,9.8,4.5,10,7.5c0.2,1.8-0.6,2.3-0.6,2.3s-3.3-5.2-5.8-4.6s1.3,2.3,0.1,3.7
					c-1.3,1.4-8.6-0.8-8.5,4.6c0.1,2.6,3.7,2.6,4.8,10.8c0.8,6-12.6-0.1-16.4,4.4S223.7,691.4,223.9,695z"/>
				<g>
					<path class="st22" d="M55.1,694.1c1.7,1.2,2.4,3.8,3,6.6c-2.5-1.2-7.2-3.2-11.1-3.6l0,0C51.9,697.5,52.8,692.4,55.1,694.1z"/>
					<rect x="38.3" y="691.8" class="st22" width="0" height="0"/>
					<path class="st22" d="M43.4,689.6c1.1,0.9,0.6,2.7,0.5,4.3h0c0,0-1.6-2.2-4.8-2.1C40,690.9,41.3,687.9,43.4,689.6z"/>
				</g>
				<g>
					<path class="st22" d="M248.8,661.5c1.3-1.4-2.6-3.1-0.1-3.7c2.2-0.5,4.9,3.2,5.6,4.3c-1.8,1.1-7.5,4.7-11.2,8.5
						c-1.3-2.3-2.8-2.9-2.8-4.5C240.2,660.7,247.5,663,248.8,661.5z"/>
					<polygon class="st22" points="254.9,661.8 254.9,661.8 254.9,661.8 					"/>
					<path class="st22" d="M223.9,695c-0.2-3.7,1.1-9.3,4.8-13.8c2-2.4,7-1.7,10.9-1.5c-3.8,3.5-12.2,11.6-15.5,16.8
						C224,695.6,223.9,695,223.9,695z"/>
				</g>
				<path class="st22" d="M83.8,700.1c16.7-7.4,17-2.2,19.1,1c2.1,3.2,11.8,7.9,20.1,1.7c8.3-6.2,14-3.4,18.5-1.8
					c4.5,1.5,15,9.5,16,10.8c1,1.3,1.5,3.9,7,2c5.5-2,6.7-5.3,7.9-9c1.1-3.7,6.9-5.5,11.8-5.9c4.9-0.4,6.5,3.4,7,4.1
					c0.6,0.7,3.7,1.1,5.2,1.1s3.7,0.6,10.4,2.4c5.2,1.4,7.9,4.1,11.2,4.4c0,0-10,1.6-17.3,7c-7.3,5.4-26.2,26.2-42.5,27.3
					s-62.4-24.6-72.5-32.6c-8.5-6.8-14.2-3.3-15.8-2.1C71.8,708.5,72.2,705.3,83.8,700.1z"/>
				
					<linearGradient id="SVGID_27_" gradientUnits="userSpaceOnUse" x1="2101.5071" y1="784.1411" x2="2113.887" y2="784.1411" gradientTransform="matrix(-1 0 0 1 2265.7478 0)">
					<stop  offset="0" style="stop-color:#FFCDD6"/>
					<stop  offset="0.3975" style="stop-color:#6D8DAF"/>
					<stop  offset="1" style="stop-color:#253A59"/>
				</linearGradient>
				<path class="st29" d="M158.1,745.1C158.2,745.1,158.2,745.1,158.1,745.1c1.3,10.7,7,60.1,6,78.5h-6.2c0,0-0.3-54.4-6.1-79.1
					C154.2,745.1,156.4,745.3,158.1,745.1z"/>
			</g>
			<g>
				
					<linearGradient id="SVGID_28_" gradientUnits="userSpaceOnUse" x1="1716.2914" y1="792.85" x2="1716.2914" y2="706.2934" gradientTransform="matrix(-1 0 0 1 2265.7478 0)">
					<stop  offset="0" style="stop-color:#FFCDD6"/>
					<stop  offset="0.3975" style="stop-color:#6D8DAF"/>
					<stop  offset="1" style="stop-color:#253A59"/>
				</linearGradient>
				<path class="st30" d="M645.3,768.9c0,0,0.3,3,0.9,5.6s1.9,11.1-4.3,13.4s-9.4-2.6-17.7-4.9c-8.3-2.3-11-3-12.9-3
					c-1.9,0-5.7-0.5-6.4-1.4s-2.6-5.6-8.7-5.1c-6.1,0.5-13.2,2.8-14.6,7.3s-3,8.7-9.7,11.1c-6.8,2.4-7.5-0.9-8.7-2.4
					c-1.2-1.6-14.3-11.5-19.8-13.4c-5.6-1.9-12.7-5.4-23,2.3c-10.3,7.7-22.3,1.9-24.9-2.1c-2.6-4-3-10.4-23.7-1.2s-12.5,13.6-23,15
					s-6.3-18.1-12.5-22.4c-3.1-2.2-4.2,5.3-11.5,3.5c-5.1-1.3-0.5-6.9-3.1-9c-3.2-2.7-5,4.2-6.3,2.8c-1.2-1.4,0.2-5.7,0-8.3
					c-0.2-2.6,2.4-0.9,2.4-0.9s1.2-3,3.7-1.7c2.4,1.2-2.8-5.7,12.2-11.7l2.6,3.3c0,0,5-2.3,7.3-0.7s1.7,5.9,6.4,6.6
					c4.7,0.7,11.8-8.7,28-16.3s24.2-1.2,25,2.4c0.9,3.7,3.3,9,8.7,10.8c5.4,1.7,10.3-3.1,16.2-4s8.7,1.4,15-3.8
					c6.3-5.2-2.6-8.2,6.3-15.3s14.4-11.8,35.7-9.6c0,0,2.2,0.5,1.7-2.5s7.4-3.7,14.8-2s11.4,7.4,11.4,7.4s14.1-0.7,15.3-0.3
					c1.2,0.3,1.6-5.9,2.1-6c0.5-0.1,3.7-1.3,11,0.3c0,0,2.3-0.2,3.6-5c1.3-4.8,14.7,6.6,16.4,6.7c1.7,0.1,5-2.3,7.2-0.9
					c2.3,1.5-0.9,1,3.2,3c4.1,2,12.1,5.6,12.4,9.3c0.2,2.2-0.7,2.9-0.7,2.9s-4.1-6.4-7.2-5.7c-3.1,0.8,1.7,2.9,0.1,4.6
					c-1.6,1.7-10.7-1-10.5,5.7c0.1,3.2,4.6,3.2,5.9,13.4c1,7.5-15.7-0.1-20.3,5.4C646.6,757.3,645.1,764.3,645.3,768.9z"/>
				<g>
					<path class="st22" d="M436.3,767.6c2.1,1.5,3,4.7,3.7,8.2c-3.1-1.4-9-3.9-13.7-4.5l0,0C432.3,771.9,433.4,765.6,436.3,767.6z"
						/>
					<rect x="415.4" y="764.9" class="st22" width="0" height="0"/>
					<path class="st22" d="M421.7,762.1c1.4,1.2,0.7,3.3,0.6,5.3h0c0,0-2-2.7-6-2.6C417.5,763.7,419.2,760,421.7,762.1z"/>
				</g>
				<g>
					<path class="st22" d="M676.1,727.4c1.6-1.7-3.2-3.8-0.1-4.6c2.7-0.7,6.1,4,7,5.3c-2.2,1.3-9.3,5.8-13.9,10.5
						c-1.7-2.8-3.5-3.6-3.5-5.6C665.4,726.3,674.6,729.1,676.1,727.4z"/>
					<polygon class="st22" points="683.7,727.7 683.7,727.7 683.7,727.7 					"/>
					<path class="st22" d="M645.3,768.9c-0.3-4.5,1.3-11.6,5.9-17c2.5-3,8.7-2.1,13.5-1.9c-4.7,4.3-15.1,14.4-19.2,20.7
						C645.4,769.6,645.3,768.9,645.3,768.9z"/>
				</g>
				<path class="st22" d="M471.8,775.1c20.7-9.2,21-2.8,23.7,1.2c2.6,4,14.6,9.7,24.9,2.1c10.3-7.7,17.4-4.2,23-2.3
					c5.6,1.9,18.6,11.8,19.8,13.4c1.2,1.6,1.9,4.9,8.7,2.4c6.8-2.4,8.3-6.6,9.7-11.1c1.4-4.5,8.5-6.8,14.6-7.3
					c6.1-0.5,8,4.2,8.7,5.1s4.5,1.4,6.4,1.4s4.5,0.7,12.9,3c6.4,1.7,9.8,5,13.8,5.4c0,0-12.4,1.9-21.5,8.7
					c-9,6.7-32.5,32.5-52.6,33.9c-20.2,1.4-77.3-30.4-89.7-40.3c-10.5-8.4-17.6-4.1-19.5-2.6C457,785.6,457.4,781.5,471.8,775.1z"/>
				
					<linearGradient id="SVGID_29_" gradientUnits="userSpaceOnUse" x1="1679.5437" y1="922.1186" x2="1709.6742" y2="922.1186" gradientTransform="matrix(-1 0 0 1 2265.7478 0)">
					<stop  offset="0" style="stop-color:#FFCDD6"/>
					<stop  offset="0.3975" style="stop-color:#6D8DAF"/>
					<stop  offset="1" style="stop-color:#253A59"/>
				</linearGradient>
				<path class="st31" d="M563.8,830.9C563.9,830.9,563.9,830.9,563.8,830.9c1.6,13.2,23.6,160.2,22.3,183.1h-7.7
					c0,0-15.2-153.2-22.4-183.8C559,830.8,561.7,831,563.8,830.9z"/>
			</g>
			<g>
				<linearGradient id="SVGID_30_" gradientUnits="userSpaceOnUse" x1="281.2361" y1="1150.5343" x2="281.2361" y2="578.3509">
					<stop  offset="0" style="stop-color:#FFCDD6"/>
					<stop  offset="0.3975" style="stop-color:#6D8DAF"/>
					<stop  offset="1" style="stop-color:#253A59"/>
				</linearGradient>
				<path class="st32" d="M271.6,578.4c0,0,5,3.3,5,5s-3.9,40.2-2.5,51.2c1.4,11,5,48.4,4.3,62.3c-0.7,13.9-1.4,453.7-1.4,453.7h10
					c0,0,0.7-457.9,0-472.5c-0.7-14.6-4.3-85.5-1.8-92.6c2.5-7.1,5.7-6.8,5.7-6.8L271.6,578.4z"/>
				<linearGradient id="SVGID_31_" gradientUnits="userSpaceOnUse" x1="300.5916" y1="577.1576" x2="300.5916" y2="589.5266">
					<stop  offset="0" style="stop-color:#FFCDD6"/>
					<stop  offset="0.3975" style="stop-color:#6D8DAF"/>
					<stop  offset="1" style="stop-color:#253A59"/>
				</linearGradient>
				<path class="st33" d="M284.5,579c0,0,3.6,0.5,6.2,2.5c2.7,2,12.6,11,26.4,6.9c0,0-9.4-2.5-15.3-6.2s-15.5-5.1-15.5-5.1
					S283.1,577.8,284.5,579z"/>
				<linearGradient id="SVGID_32_" gradientUnits="userSpaceOnUse" x1="302.3534" y1="498.8664" x2="302.3534" y2="575.524">
					<stop  offset="0" style="stop-color:#FFCDD6"/>
					<stop  offset="0.3975" style="stop-color:#6D8DAF"/>
					<stop  offset="1" style="stop-color:#253A59"/>
				</linearGradient>
				<path class="st34" d="M300.6,498.9c0,0,19.9,14.2,15.7,39.2c-4.3,24.9-21,35.1-28.5,37.5L300.6,498.9z"/>
				<linearGradient id="SVGID_33_" gradientUnits="userSpaceOnUse" x1="277.4121" y1="578.3691" x2="277.4121" y2="450.7839">
					<stop  offset="0" style="stop-color:#FFCDD6"/>
					<stop  offset="0.3975" style="stop-color:#6D8DAF"/>
					<stop  offset="1" style="stop-color:#253A59"/>
				</linearGradient>
				<path class="st35" d="M278.2,450.8c0,0-11.2,13.3-15,21c-12.1,25.1-34.2,91.1,13.2,106.5c0,0,35.1,4.8,30.6-61.3
					C303.4,463.2,278.2,450.8,278.2,450.8z"/>
				<linearGradient id="SVGID_34_" gradientUnits="userSpaceOnUse" x1="262.0752" y1="565.7663" x2="262.0752" y2="580.5317">
					<stop  offset="0" style="stop-color:#FFCDD6"/>
					<stop  offset="0.3975" style="stop-color:#6D8DAF"/>
					<stop  offset="1" style="stop-color:#253A59"/>
				</linearGradient>
				<path class="st36" d="M246,565.8c0,0,3,8.1,24.9,14.2c8.6,2.4,8.2-4.5,8.2-4.5s-3.2-4.3-7.3-4.3s-22.9-4.2-26.7-5.5"/>
				<linearGradient id="SVGID_35_" gradientUnits="userSpaceOnUse" x1="265.7527" y1="507.9486" x2="265.7527" y2="450.7839">
					<stop  offset="0" style="stop-color:#FFCDD6"/>
					<stop  offset="0.3975" style="stop-color:#6D8DAF"/>
					<stop  offset="1" style="stop-color:#253A59"/>
				</linearGradient>
				<path class="st37" d="M277.8,450.8c0,0,2.3,2.5,3,7.9l-16.2,39.1l-12.5,10.2l-1.4-1.8c0,0,4.1-21,13-36.1
					C268.4,462.1,277.8,450.8,277.8,450.8z"/>
				<linearGradient id="SVGID_36_" gradientUnits="userSpaceOnUse" x1="283.5115" y1="457.4421" x2="283.5115" y2="578.5182">
					<stop  offset="0" style="stop-color:#FFCDD6"/>
					<stop  offset="0.3975" style="stop-color:#6D8DAF"/>
					<stop  offset="1" style="stop-color:#253A59"/>
				</linearGradient>
				<path class="st38" d="M282,457.4c0,0-23.5,34.4-22.4,57.1c1.1,22.8-2.2,61.1,20.3,63.8c23.2,2.8,28.1-34.8,27.4-53.5
					C307.2,520.5,307.4,469.1,282,457.4z"/>
				<linearGradient id="SVGID_37_" gradientUnits="userSpaceOnUse" x1="294.7343" y1="578.5526" x2="294.7343" y2="543.9267">
					<stop  offset="0" style="stop-color:#FFCDD6"/>
					<stop  offset="0.3975" style="stop-color:#6D8DAF"/>
					<stop  offset="1" style="stop-color:#253A59"/>
				</linearGradient>
				<path class="st39" d="M306.6,543.9c0,0-1.2,3-3.3,5.3c-2.1,2.4-11.2,3.3-21.1,26.6c0,0-0.7,1.9,2.4,2.5
					c3.1,0.6,9.1-0.1,13.3-3.6C302.8,570.6,309.9,559.7,306.6,543.9z"/>
				
					<linearGradient id="SVGID_38_" gradientUnits="userSpaceOnUse" x1="284.3372" y1="499.6862" x2="284.3372" y2="590.0872" gradientTransform="matrix(0.9995 -3.129533e-02 3.129533e-02 0.9995 -37.6178 -1.9981)">
					<stop  offset="0" style="stop-color:#FFCDD6"/>
					<stop  offset="0.3975" style="stop-color:#6D8DAF"/>
					<stop  offset="1" style="stop-color:#253A59"/>
				</linearGradient>
				<path class="st40" d="M260.6,488.6c0,0-26.2,25.6-4.4,68.6c18,35.5,24.4,16.1,24.4,16.1s-5.6-14.8-5.9-22.3
					C274.6,543.5,279.2,497.4,260.6,488.6z"/>
			</g>
			<g>
				<linearGradient id="SVGID_39_" gradientUnits="userSpaceOnUse" x1="688.2817" y1="609.0333" x2="688.2817" y2="739.6863">
					<stop  offset="0" style="stop-color:#FFCDD6"/>
					<stop  offset="0.3975" style="stop-color:#6D8DAF"/>
					<stop  offset="1" style="stop-color:#253A59"/>
				</linearGradient>
				<path class="st41" d="M687.3,609c0,0,6.1,0.5,10.1,2.8c4.1,2.3,8.1,3.8,9.6,4.3c1.5,0.5,24.8,6.1,29.6,39.5
					c4.8,33.4-6.5,55.8-15.1,66.7c-8.6,10.9-24.3,16.6-24.3,16.6s-43.5,10.4-56.3-47.6c-12.2-55,27.2-67.7,32.1-71
					S684.5,608.6,687.3,609z"/>
				<linearGradient id="SVGID_40_" gradientUnits="userSpaceOnUse" x1="591.1075" y1="693.3762" x2="591.1075" y2="759.949">
					<stop  offset="0" style="stop-color:#FFCDD6"/>
					<stop  offset="0.3975" style="stop-color:#6D8DAF"/>
					<stop  offset="1" style="stop-color:#253A59"/>
				</linearGradient>
				<path class="st42" d="M512.6,704.8c0,0,0.5-2.3,3-2c2.5,0.3,8.4-0.8,11.6-1.5c3.3-0.8,26.8-10.6,50.1-7.1s36,10.4,50.4,21.9
					c14.4,11.5,41.8,39.1,41.8,39.1s-28.1-1.3-33.2,0c-5.1,1.3-20.3,7.6-42.3,3.3S525,721.5,512.6,704.8z"/>
				<linearGradient id="SVGID_41_" gradientUnits="userSpaceOnUse" x1="574.9425" y1="687.2407" x2="574.9425" y2="696.7572">
					<stop  offset="0" style="stop-color:#FFCDD6"/>
					<stop  offset="0.3975" style="stop-color:#6D8DAF"/>
					<stop  offset="1" style="stop-color:#253A59"/>
				</linearGradient>
				<path class="st43" d="M577.4,694.1c4.8,0.7,9.1,1.6,13.1,2.6c-0.2-0.2-0.5-0.5-0.7-0.7c-11.5-11.3-19.7-8.6-24.5-8.3
					c-3.1,0.2-5.1,3.6-6,6C565.1,693.2,571.3,693.2,577.4,694.1z"/>
				<linearGradient id="SVGID_42_" gradientUnits="userSpaceOnUse" x1="608.9597" y1="596.5535" x2="608.9597" y2="716.0532">
					<stop  offset="0" style="stop-color:#FFCDD6"/>
					<stop  offset="0.3975" style="stop-color:#6D8DAF"/>
					<stop  offset="1" style="stop-color:#253A59"/>
				</linearGradient>
				<path class="st44" d="M592.6,697.3c14.4,4,24.3,10,35.3,18.8c0,0,0,0,0,0c-0.1-0.5-0.1-1,0-1.5c0.4-2.7,2.8-7.2,3.8-8.7
					c1-1.5,1.4-5.2,3-7.4c0,0,1.1-2.5,2.5-2.5c1.3,0,2.7,0.8,5.9,3.1c-0.7-2.5-1.4-5.1-2-7.8c-6.1-27.5,0.7-44.4,9.6-54.8
					c-28-36.8-62.5-37-64.1-37.4c-1.6-0.4-8.1-1.5-10.6-2.3c-2.5-0.8-4,0-4,0s-12.3,30,3,67.8C581.1,680,587.4,690.4,592.6,697.3z"
					/>
				<linearGradient id="SVGID_43_" gradientUnits="userSpaceOnUse" x1="710.2293" y1="561.9418" x2="710.2293" y2="710.8026">
					<stop  offset="0" style="stop-color:#FFCDD6"/>
					<stop  offset="0.3975" style="stop-color:#6D8DAF"/>
					<stop  offset="1" style="stop-color:#253A59"/>
				</linearGradient>
				<path class="st45" d="M736.7,655.6c3.5,24.2-1.5,42.7-7.8,55.2c5-5.9,10.9-12.1,17.7-17.3l1.8-15.6c1-35.2-11.1-53.4-19-81.5
					c-7.9-28.1-19.8-34.4-19.8-34.4c-1,2.8-7.6,12.2-21.3,26.8c-8.5,9-13.6,22.9-16.3,32.2c0.4-0.2,0.8-0.4,1-0.6
					c4.8-3.3,11.4-11.7,14.3-11.3c0,0,6.1,0.5,10.1,2.8c4.1,2.3,8.1,3.8,9.6,4.3C708.6,616.6,731.9,622.2,736.7,655.6z"/>
				<linearGradient id="SVGID_44_" gradientUnits="userSpaceOnUse" x1="654.8572" y1="589.7999" x2="654.8572" y2="636.5298">
					<stop  offset="0" style="stop-color:#FFCDD6"/>
					<stop  offset="0.3975" style="stop-color:#6D8DAF"/>
					<stop  offset="1" style="stop-color:#253A59"/>
				</linearGradient>
				<path class="st46" d="M650.6,636.5C650.6,636.5,650.6,636.5,650.6,636.5c8-9.4,17.7-13.6,21.4-15.5c1-3.3,2.2-7.2,3.9-11.3
					c-11.3-12.8-25.2-19.9-25.2-19.9c-8.8,7.6-16.8,29.1-16.8,29.1l0,0C639.5,623.6,645.2,629.4,650.6,636.5z"/>
				<linearGradient id="SVGID_45_" gradientUnits="userSpaceOnUse" x1="765.4423" y1="604.4201" x2="765.4423" y2="752.1752">
					<stop  offset="0" style="stop-color:#FFCDD6"/>
					<stop  offset="0.3975" style="stop-color:#6D8DAF"/>
					<stop  offset="1" style="stop-color:#253A59"/>
				</linearGradient>
				<path class="st47" d="M828,604.7c0,0-44.8-6.3-70,36.7c-21.5,36.8-7.9,44.1-55.1,101.6c0,0,41.9,13.7,52.6,7.6
					c3.5-2,7.3-5.1,10.8-8.3c7.6-6.9,13.7-15.3,18-24.6l17.6-37.8c1.4-3,2.5-6.1,3.4-9.3C809.3,656,821.7,611.3,828,604.7z"/>
				<path class="st22" d="M747.9,662.2c2.3-6.1,5.4-12.7,10.1-20.8c0.2-0.4,0.4-0.7,0.6-1.1c-2.4-37.9-5.1-54.6-7.9-55.7
					c-2.6-1-16.4,11.7-20.3,15.4C737,621.8,745.7,638,747.9,662.2z"/>
				<linearGradient id="SVGID_46_" gradientUnits="userSpaceOnUse" x1="750.2083" y1="584.6885" x2="750.2083" y2="662.2214">
					<stop  offset="0" style="stop-color:#FFCDD6"/>
					<stop  offset="0.3975" style="stop-color:#6D8DAF"/>
					<stop  offset="1" style="stop-color:#253A59"/>
				</linearGradient>
				<path class="st48" d="M751.1,584.9l-0.7-0.2c0,0,0,0,0,0c1,1.2,0.4,0.1-5.8,13.7c-6.2,13.7-0.1,43.9-0.1,43.9l0,0
					c1.6,6.2,2.8,12.7,3.5,19.9c2.3-6.1,5.4-12.7,10.1-20.8c0.2-0.4,0.4-0.7,0.6-1.1C756.4,604,753.8,587.1,751.1,584.9z"/>
				<linearGradient id="SVGID_47_" gradientUnits="userSpaceOnUse" x1="739.1445" y1="742.7491" x2="739.1445" y2="784.5181">
					<stop  offset="0" style="stop-color:#FFCDD6"/>
					<stop  offset="0.3975" style="stop-color:#6D8DAF"/>
					<stop  offset="1" style="stop-color:#253A59"/>
				</linearGradient>
				<path class="st49" d="M694.5,749.8c0,0,7.6,32.7,41.4,34.6c33.8,1.9,47.7-14.4,47.7-14.4s1.5-2.7-1.7-3.6
					c-3.2-0.9-7.3-8.3-16.4-11.6c-8.6-3.1-9-3.3-20-7.8c-8.9-3.6-41-5.7-48.1-2.9C693.4,745.6,694.5,749.8,694.5,749.8z"/>
				<linearGradient id="SVGID_48_" gradientUnits="userSpaceOnUse" x1="672.4844" y1="748.2754" x2="672.4844" y2="825.1663">
					<stop  offset="0" style="stop-color:#FFCDD6"/>
					<stop  offset="0.3975" style="stop-color:#6D8DAF"/>
					<stop  offset="1" style="stop-color:#253A59"/>
				</linearGradient>
				<path class="st50" d="M682.7,750c0,0-21.7,0.6-35.3,29.1c-13.7,28.5-4.9,41-4.9,41s21.7,18.4,50.1-14.8c28.5-33.2,0-57,0-57
					L682.7,750z"/>
				<linearGradient id="SVGID_49_" gradientUnits="userSpaceOnUse" x1="677.2907" y1="751.1615" x2="677.2907" y2="810.7665">
					<stop  offset="0" style="stop-color:#FFCDD6"/>
					<stop  offset="0.3975" style="stop-color:#6D8DAF"/>
					<stop  offset="1" style="stop-color:#253A59"/>
				</linearGradient>
				<path class="st51" d="M677.4,754.7c0,0-1.9,35.7-9.7,56c0,0,25.5-26.2,17.7-58.6C685.4,752.2,684.2,748.7,677.4,754.7z"/>
				<linearGradient id="SVGID_50_" gradientUnits="userSpaceOnUse" x1="644.9448" y1="817.009" x2="644.9448" y2="750.5497">
					<stop  offset="0" style="stop-color:#FFCDD6"/>
					<stop  offset="0.3975" style="stop-color:#6D8DAF"/>
					<stop  offset="1" style="stop-color:#253A59"/>
				</linearGradient>
				<path class="st52" d="M607.8,814.4c0,0-1.3-3,3.3-4.8c4.6-1.8,8.1-5.6,12.7-9.4c4.6-3.8,29.8-37.6,41.4-43.4s15.1-8.5,16.8-4.2
					s-9.4,32.4-22.6,43.1s-39,22.1-46.6,21.3C607.9,816.5,607.8,814.4,607.8,814.4z"/>
				<path class="st22" d="M665.2,804.9c-1.4,2.2-3.5,10.3-2.7,12.1c0,0,3.2-4.1,5.1-6.2c3-7.8,5.1-17.9,6.6-27.3
					C672.8,787.8,668.7,799.4,665.2,804.9z"/>
				<linearGradient id="SVGID_51_" gradientUnits="userSpaceOnUse" x1="696.1378" y1="1011.7257" x2="696.1378" y2="742.5138">
					<stop  offset="0" style="stop-color:#FFCDD6"/>
					<stop  offset="0.3975" style="stop-color:#6D8DAF"/>
					<stop  offset="1" style="stop-color:#253A59"/>
				</linearGradient>
				<path class="st53" d="M682,752.6c0,0,4.4,1.3,6.2,24.1c1.8,22.8,6.1,235,6.1,235h15.9l-10.9-243.1l3.6-21.2l-2.4-4.8l-17.8,7.5
					L682,752.6z"/>
				<linearGradient id="SVGID_52_" gradientUnits="userSpaceOnUse" x1="663.5732" y1="757.2641" x2="663.5732" y2="696.0412">
					<stop  offset="0" style="stop-color:#FFCDD6"/>
					<stop  offset="0.3975" style="stop-color:#6D8DAF"/>
					<stop  offset="1" style="stop-color:#253A59"/>
				</linearGradient>
				<path class="st54" d="M634.7,698.5c0,0,1.1-2.5,2.5-2.5s2.9,0.9,6.5,3.5c12.7,9.5,18.9,6.9,36.6,18.2
					c11.6,6,12.8,17.2,17.2,21.2c3,2.8,1.8,3,1.8,3s-1.6,2.5-4.4,3.8s-7.1,3.2-9.9,4.9c-3.9,2.4-7,5.8-12.5,6.4
					c-5.5,0.6-12-1.3-12-1.3s-8.4,0.6-15.6-7.6s-13.7-23.7-14.2-24.7c-0.6-0.9-3-6.3-2.7-9c0.4-2.7,2.8-7.2,3.8-8.7
					C632.6,704.4,633,700.7,634.7,698.5z"/>
				<linearGradient id="SVGID_53_" gradientUnits="userSpaceOnUse" x1="763.3765" y1="670.061" x2="763.3765" y2="747.3554">
					<stop  offset="0" style="stop-color:#FFCDD6"/>
					<stop  offset="0.3975" style="stop-color:#6D8DAF"/>
					<stop  offset="1" style="stop-color:#253A59"/>
				</linearGradient>
				<path class="st55" d="M699.4,739.7c0,0,4-1.3,12.1-8.2c8.1-6.8,21.6-31,43.2-43.5c27.4-15.7,49.4-11.2,58.2-13.7
					s12.2-4.5,13.9-4.3c1.8,0.3,1.5,10.9-2,19.5s-17.7,33-38,47.6c-18.2,13.2-28.6,8.6-36.7,9.4c-8.1,0.8-21.3,1-25.3,0.6
					c-4.1-0.4-24.3-4.7-24.3-4.7S697.6,742,699.4,739.7z"/>
			</g>
			<g>
				<linearGradient id="SVGID_54_" gradientUnits="userSpaceOnUse" x1="308.1373" y1="823.4968" x2="308.1373" y2="699.0653">
					<stop  offset="0" style="stop-color:#FFCDD6"/>
					<stop  offset="0.3975" style="stop-color:#6D8DAF"/>
					<stop  offset="1" style="stop-color:#253A59"/>
				</linearGradient>
				<path class="st56" d="M170.3,789c0,0-0.5,4.3-1.3,8s-2.8,16,6.3,19.3s13.5-3.8,25.5-7s15.8-4.3,18.5-4.3s8.3-0.7,9.3-2
					s3.8-8,12.5-7.3s19,4,21,10.5s4.3,12.5,14,16s10.8-1.3,12.5-3.5s20.5-16.5,28.5-19.3s18.3-7.8,33,3.3s32,2.8,35.8-3
					s4.3-15,34-1.8s18,19.5,33,21.5s9.1-26,18-32.3c4.5-3.1,6,7.6,16.5,5c7.3-1.8,0.8-9.9,4.5-13c4.6-3.9,7.3,6,9,4s-0.3-8.3,0-12
					s-3.5-1.3-3.5-1.3s-1.8-4.3-5.3-2.5s4-8.3-17.5-16.8l-3.8,4.8c0,0-7.3-3.3-10.5-1s-2.5,8.5-9.3,9.5s-17-12.5-40.3-23.5
					s-34.8-1.8-36,3.5s-4.8,13-12.5,15.5s-14.8-4.5-23.3-5.8s-12.5,2-21.5-5.5s3.8-11.8-9-22s-20.8-17-51.3-13.8
					c0,0-3.1,0.8-2.5-3.6s-10.6-5.3-21.3-2.9s-16.4,10.6-16.4,10.6s-20.3-1-22-0.5s-2.3-8.5-3-8.6s-5.3-1.9-15.8,0.4
					c0,0-3.3-0.3-5.1-7.1s-21.1,9.5-23.6,9.6s-7.1-3.4-10.4-1.3s1.3,1.4-4.6,4.3c-5.9,2.9-17.4,8.1-17.9,13.4c-0.3,3.1,1,4.1,1,4.1
					s5.9-9.3,10.4-8.1c4.5,1.1-2.4,4.1-0.1,6.6c2.2,2.5,15.4-1.5,15.1,8.1c-0.1,4.6-6.6,4.6-8.5,19.3c-1.4,10.8,22.5-0.1,29.1,7.8
					S170.7,782.5,170.3,789z"/>
				<g>
					<path class="st22" d="M470.8,787.3c-3,2.1-4.3,6.7-5.4,11.8c4.4-2.1,12.9-5.7,19.7-6.4l0,0C476.6,793.4,475,784.4,470.8,787.3z
						"/>
					<rect x="500.8" y="783.3" class="st22" width="0" height="0"/>
					<path class="st22" d="M491.8,779.3c-2,1.7-1.1,4.8-0.9,7.6h0c0,0,2.8-3.9,8.6-3.7C497.8,781.6,495.4,776.2,491.8,779.3z"/>
				</g>
				<g>
					<path class="st22" d="M126,729.4c-2.3-2.5,4.6-5.5,0.1-6.6c-3.9-1-8.8,5.7-10,7.6c3.2,1.9,13.4,8.3,20,15.2c2.4-4,5-5.1,5.1-8
						C141.4,727.9,128.3,731.9,126,729.4z"/>
					<path class="st22" d="M115.1,729.8L115.1,729.8C115.1,729.8,115.1,729.8,115.1,729.8C115.1,729.8,115.1,729.8,115.1,729.8z"/>
					<path class="st22" d="M170.3,789c0.4-6.5-1.9-16.6-8.5-24.5c-3.6-4.3-12.4-3-19.4-2.7c6.7,6.2,21.7,20.7,27.6,29.8
						C170.2,790.1,170.3,789,170.3,789z"/>
				</g>
				<path class="st22" d="M419.8,798c-29.8-13.3-30.3-4-34,1.8s-21,14-35.8,3s-25-6-33-3.3s-26.8,17-28.5,19.3s-2.8,7-12.5,3.5
					s-12-9.5-14-16s-12.3-9.8-21-10.5s-11.5,6-12.5,7.3s-6.5,2-9.3,2s-6.5,1-18.5,4.3c-9.2,2.5-14,7.2-19.9,7.8
					c0,0,17.9,2.8,30.9,12.5c13,9.7,46.7,46.7,75.7,48.7s111.1-43.7,129-58c15.1-12.1,25.3-5.9,28.1-3.8
					C441.1,813,440.4,807.2,419.8,798z"/>
				<linearGradient id="SVGID_55_" gradientUnits="userSpaceOnUse" x1="276.5858" y1="947.6165" x2="298.6245" y2="947.6165">
					<stop  offset="0" style="stop-color:#FFCDD6"/>
					<stop  offset="0.3975" style="stop-color:#6D8DAF"/>
					<stop  offset="1" style="stop-color:#253A59"/>
				</linearGradient>
				<path class="st57" d="M287.5,878.2c0,0-0.1,0-0.1,0c-2.2,19-12.3,106.9-10.6,139.8h11c0,0,0.5-96.8,10.8-140.8
					C294.4,878,290.6,878.4,287.5,878.2z"/>
			</g>
			<g>
				
					<linearGradient id="SVGID_56_" gradientUnits="userSpaceOnUse" x1="535.537" y1="1035.2609" x2="578.3367" y2="1035.2609" gradientTransform="matrix(0.997 -7.785811e-02 7.785811e-02 0.997 -107.2596 48.6649)">
					<stop  offset="0" style="stop-color:#FFCDD6"/>
					<stop  offset="0.3975" style="stop-color:#6D8DAF"/>
					<stop  offset="1" style="stop-color:#253A59"/>
				</linearGradient>
				<path class="st58" d="M544.6,967.6c0,0-11.1,106.7-21.3,142.3l-10.7-2.5c0,0,22-98.6,20.8-142.5L544.6,967.6z"/>
				<path class="st22" d="M326.7,845.4l-0.8,6.2c0,0,49.5,13,71.4,29.9c21.9,16.8,82.7,88.8,134.3,94.8c0,0,8-0.6,14-1.1
					c6-0.5,73.9-30.3,94.8-45c20.9-14.7,60.6-32.8,60.6-32.8s34.7,0.7,39.9,5.1l-1.2-15.9l-43.9-5.3l-30.3-9.7l-27.9-10.9
					l-105.5-11.3l-37.4-7.6l-28.6,6.7l-16,6.8l-14.3,3.6l-12.4-5L413,838.6l-12.5-1.5l-13.3,3.5l-12.8,10.5l-21.4-10.4l-22.8-4.4
					L326.7,845.4z"/>
				<path class="st22" d="M330.9,828.2l-0.1-5.6c0,0-1.2-3.2-3.6-2.8s-4.4,2.6-5.6,5.7c-1.1,3.1-7.2,7.7-7.6,10.6
					c-0.4,2.9-1.2,6.6,0.7,9.1c1.9,2.5,9.5,5.3,9.5,5.3l6.6-6.3L330.9,828.2z"/>
				<path class="st22" d="M769.6,871.9c0,0,22.2-12.8,26.5-11.1l-5.6-2.6l-7,0.5l-8.8,2.9L769.6,871.9z"/>
				
					<linearGradient id="SVGID_57_" gradientUnits="userSpaceOnUse" x1="602.5452" y1="922.2122" x2="602.5452" y2="805.3276" gradientTransform="matrix(0.997 -7.785811e-02 7.785811e-02 0.997 -107.2596 48.6649)">
					<stop  offset="0" style="stop-color:#FFCDD6"/>
					<stop  offset="0.3975" style="stop-color:#6D8DAF"/>
					<stop  offset="1" style="stop-color:#253A59"/>
				</linearGradient>
				<path class="st59" d="M330.8,822.6c1.9,4.3-15,20.1-6.5,27.9c6.4,5.9,15.2-9.8,21.5-6.7c8.2,4.1,14.2,19.4,20.1,19
					c7.4-0.5,21.1-26.2,34.7-23.1c20,4.5,14.8,23.4,21.2,23.9c22,1.8,22.8-5.6,37.2-6.9c24.4-2.2,31-12.6,45-10.9
					c33.3,4.1,27.9,31.2,45.1,33.9c11.5,1.8,16.4-11.6,44.2-3.5c20.1,5.9,15.9,24.9,28.7,24.8c17.9-0.1,25.2-19.2,24.9-31.7
					c3.2-3.8,9.6,12,25.6,15.4c16,3.4,43.2,5.3,57,10.6c13.8,5.3,10.8,10.2,16.3,11.4s9.8-11.2,16.2-14.6
					c24.7-13.1,5.8-21.8,17-30.1c7.2-5.3,10.2,1.9,16.9-1.3c6.8-3.2-8.9-7.7-8.9-7.7s-7.2,5.9-8.2,6s-0.3-2.7-3-5
					c-2.7-2.3-3.9-4.6-5.6-7.4s-10.9,0.6-18.6-3.5c-5.1-2.7-7.2-2.4-21.5-8.6c0,0-2.9-2-4,2.8c-1.1,4.9-24.8,25.5-33.6,29
					c-8.8,3.4-12.2,6.9-29.9-0.4c-11.4-4.8-6.1-13.8-20.4-23.2c-14.3-9.4-7.3-0.9-13-5.5c-5.6-4.6,2.7-11-20.3-19
					c-22.9-8-35,4.7-44.4,6.2c-9.4,1.5-7.7,0.1-27.2,5.1c-17.7,4.5-13.2,11.1-23.7,10.9c-10.5-0.2-24-23.3-39.4-19.2
					c-23.6,6.2-21.8,34.3-34.6,35.1c-15.2,0.9-6.3-26.2-24.6-29.7c-20.6-3.9-21.3,12.7-32.8,13.6s-13.1-7-23.6-6.7
					s-15.8,3.2-15.8,3.2s-7.8-7.7-8.8-9.6C333.3,825.3,330,820.9,330.8,822.6z"/>
			</g>
		</g>
	</g>
</g>
<g>
	<circle class="st1" cx="512" cy="512" r="468.4"/>
	<g>
		<g>
			<path class="st60" d="M752,370.6c-1.6-0.3-3.3,1.5-3.4,3.7c0.4,0.2,1,1,1.7,1.1c1.4,0.2,3.3-1.6,3.2-3.3
				C753.5,371.6,752.6,370.7,752,370.6z"/>
			<path class="st60" d="M702.6,175.7c2.5,0.9,4.6,0.2,6.5-1.3c5-4.2,19.7-3.3,24.6-0.9l0,0c0,0,0,0,0,0c0.1,0,0.2,0.1,0.3,0.1
				c0.1,0.1,0.3,0.2,0.4,0.3c1.1,0.6,3.3,1.8,4.6,2.4c0,0,0,0,0,0c0.2,0.1,0.4,0.2,0.6,0.3c1,0.5,2.2,0.8,3.2,1.1
				c1.2,0.4,2.5,0.6,3.6,1.2c0.5,0.2,1,0.9,1.1,1.5c0.4,1.4,0.7,2.8,1,4.2c0.3,1.4,0.8,2.9,0.9,4.3c0.5,4.9,0.9,9.5,1.6,14.4
				c0.1,0.9,1.5,1.6,2.3,2.4c0.4-0.9,1.2-1.7,1.3-2.6c0.1-5,0.1-9.9,0-14.9c0-3.2-1.1-6-4.4-7.8c-0.4-0.2-0.8-1-0.7-1.5
				c0.7-3.4,0.3-3.8-3-5.7c-4.4-2.6-9.4-3.5-14.3-4.1c-4.9-0.6-17.1-1.8-22.1,0.1c-0.8,0.3-1.8,0.2-2.7,0c-2.4-0.4-5,0.4-6.3,2.2
				C699.9,173.2,700.4,174.9,702.6,175.7z"/>
			<path class="st60" d="M746.3,378.5c-3,2.4-6.4,1.8-9.9,1.4c-2.3-0.3-4.7-0.2-7-0.2c-3,0-13,0.4-16,0.2c-2.6-0.2-5.2-0.7-7.6-1.6
				c-2.8-1.1-5.3-2.8-8.1-4.1c-3-1.4-4.8-3.5-5.1-6.5c-0.2-1.9-0.4-3.8-0.6-5.6c-0.7-8.8-1.6-17.6-2.1-26.4
				c-0.3-5.2,0.4-6.3,0.2-11.5c-0.2-7.8-0.7-6.4-1-14.2c-0.2-5.7-0.4-1.5-0.6-7.2c-0.1-3.8-0.5-7.7-0.5-11.5
				c0.1-6.7,0.5-13.5,0.7-20.2c0.1-2.7-0.1-5.4-0.1-8.1c0.1-7.4,0.2-11.9,0.3-19.3c0-5.8,0-9.1-0.1-14.9c0,0-0.4-3,0-4.3
				c0,0,0,0,0-0.1c0,0.5,0,0.7,0,0.7c0-0.3,0-0.5,0-0.8c0.3-1.1,0.5-2.9,0.2-4.8c0,0,0-0.1,0-0.1c0.1-2,0.2-3.9,0.3-6.7
				c0.1-2.4,0-4.9,0.2-7.3c0-0.3,0.1-0.7,0.2-1c0.2-1.3,0.7-3.6,1-4.2c0.5-0.8,0.6-4.4,0.7-5.5c0-0.1,0-0.2,0-0.3
				c0.1-0.5,1.1-1.2,1.8-1.3c1.9-0.2,2.7-1.1,2.7-2.7c0-2,0.3-4-0.2-5.8c-0.8-2.8-0.1-4.9,1.8-7.1c0.6-0.7,0.2-2,0.3-3
				c-1.1,0.3-2.4,0.3-3.2,0.9c-1.7,1.3-2.9,3.1-4.5,4.5c-2,1.7-3.1,3.6-3.1,6c0,0.8-0.3,1.6-0.4,2.4c-0.8,7-2.3,13.7-2.4,20.7
				c-0.2,13.1,0.5,13.3,0.7,26.4c0.2,8.9,0.2,14.9,0.2,23.8c0,2.6-0.1,5.3-0.1,7.9c0.1,4,0.4,8.1,0.3,12.1
				c-0.2,9.9-0.9,15.9-0.9,25.8c0,11.1,0.5,6.8,0.7,17.9c0.2,14.4,0.3,24.6,0.6,39c0.1,6.2,1.1,12.3,5.5,17.6c2.5,3.1,5.6,5,8.8,4.3
				c7.8-1.6,22.6-0.7,30,1.1c5.9,1.5,10.8,0.2,15.7-2.1c1.9-0.9,2.9-2.4,2.5-4.7C747.5,378.2,746.7,378.2,746.3,378.5z"/>
			<path class="st60" d="M754,211c-0.1-0.9-0.9-1.7-1.4-2.5c-0.3,0.1-0.7,0.1-1,0.2c-0.2,1.3-0.7,2.6-0.7,3.9c0,5.7,0.1,1,0,6.7
				c0,4.4-0.2,6.4-0.3,10.8c0,1.1-0.4,1.7-1.2,1.9l0.9,4c0.2,0.1,0.5,0.1,0.7,0.2c0.8,0.2,1.8,0.8,2.4,0.6c0.6-0.3,1.1-1.2,1.1-2
				c0.2-1.3-0.1-2.7,0-4C755.2,219.8,755.5,221.9,754,211z"/>
			<path class="st60" d="M757.1,348c-0.5-11.8-0.5-14.8-0.7-26.7c-0.1-5.2,0-5.7-0.1-10.9c-0.2-5.8-0.6-1.5-0.9-7.3
				c-0.1-1.3-0.1-2.6,0.2-3.8c0.4-1.9,0.4-3.7-1-5.4c-0.3-0.4-0.2-1.7,0.3-2c1.8-1.1,1.9-2.6,1.6-4.3c-0.7-4.7-1.8-9.5-1.9-14.2
				c-0.2-6.8,0.1-13.6,0.7-20.4c0.4-4.4-0.4-5.8-0.8-10.2c-0.1-0.5-0.6-0.9-1-1.4c-0.5,0.3-1.2,0.6-1.6,1c-0.4,0.5-0.6,1.1-0.8,1.7
				c0,0.1,0,0.2-0.1,0.3c-0.5,2-0.2,6.9-0.2,6.9l0,0c0.3,3.6,0.6,4.4,0.8,8c0,0.2-0.2,0.4-0.2,0.6c-0.2,1-0.4,2-0.5,2.9
				c-0.1,1.9-0.2,3.9-0.2,5.8c0,2.5,0.1,5,0.2,7.4c0.1,1.9,0.1,3.7,0.2,5.6c0,0.7-0.1,1.4,0,2c0.6,2.9-0.4,5.1-1,8.5
				c-0.2,1.1-0.2,2.2-0.2,2.5c0.1,4.5-0.1,3.1,0.1,7.6c0.1,1.9,0.9,1.8,0.9,3.7c0.2,6.8,0.3,5.1,0.5,11.9
				c0.2,10.4,0.4,11.9,0.6,22.3c0.1,4.2,0.1,8.5,0.1,12.7c0,1.9-0.2,3.9-0.3,5.8c-0.1,2.5-0.1,5.1-0.1,7.6c0,0.6,0.1,1.6,0.5,1.7
				c0.5,0.2,1.8,0,2-0.3c0.9-1.4,2-2.9,2.3-4.4C757.4,358.2,757.4,353.1,757.1,348z"/>
		</g>
		<g>
			<path class="st60" d="M733.6,188.8l3.9,2.1c0.4,0.1,0.4,0.4,0,0.8l-0.9,1.7V209l0.4,9.4c0.1,3-1.1,5.6-3.8,7.7
				c-0.4,0.4-0.7,0.5-0.9,0.4c-0.4,0-0.6-0.3-0.6-0.8c0-1.8-0.3-3.3-0.8-4.5h-22.7c-0.3,1.7-1.1,3.4-2.6,4.9
				c-0.4,0.4-0.6,0.6-0.8,0.6c-0.3-0.1-0.4-0.4-0.4-0.8l0.2-28.7c0-2.6-0.1-5.1-0.4-7.5c0-0.4,0.1-0.5,0.4-0.4l3.9,2.4h5.3l-0.2-9.6
				c0-0.4,0.1-0.5,0.4-0.4l4.3,1.7c0.4,0.3,0.4,0.6,0,0.9c-0.1,0.5-0.3,1.5-0.6,3v4.3l4.5-0.2v-10.3c0-0.4,0.1-0.5,0.4-0.4l4.7,1.9
				c0.4,0.3,0.4,0.6,0,0.9c-0.4,0.5-0.6,1.5-0.8,3v4.9h5.1L733.6,188.8z M713.9,193.8v-0.8h-5.4l-0.2,11.1l5.6-0.2V193.8z
				 M708.3,205.1v15.2l5.8-0.2l-0.2-15H708.3z M717.6,205.1l-0.2,15h4.9v-15H717.6z M717.8,193.1l-0.2,10.9h4.7v-11.1L717.8,193.1z
				 M730.8,203.8c0.4,0,0.6,0.2,0.6,0.6s-0.2,0.6-0.6,0.6h-4.1l-0.2,15.2h5.8l-0.4-27.4l-5.3,0.2V204L730.8,203.8z"/>
			<path class="st60" d="M709,232.8l1.9-1.9l3.2,2.4c0.2,0.1,0.3,0.3,0.2,0.4c0,0.1-0.1,0.3-0.4,0.4l-0.9,1.1
				c-0.8,1.3-2.1,3.3-4.1,6.2c-0.8,1.1-1.3,2-1.7,2.6c5,4,7.4,7.6,7.1,10.9c-0.3,2.8-2.1,4.8-5.4,6.2c-0.1,0.1-0.2,0.1-0.2-0.2
				c0.1-1.6-0.4-2.9-1.7-3.8c-0.1-0.1-0.1-0.2,0-0.4c2,0.3,3-0.1,3-1.1c0.5-4-0.7-7.9-3.6-11.6c1.6-5.3,2.6-8.7,2.8-10.3l-5.1,0.4
				l-0.4,24l0.2,9.2c-0.3,3.1-1.1,5.5-2.6,7.1c-0.8,0.6-1.2,0.6-1.3,0l0.4-12.6l0.6-31.1l3.2,2.3L709,232.8z M721.4,251.9
				c-1.9,0.1-3.6,0.3-5.1,0.6L715,251l20.3-0.2l2.3-2.4l3,2.8c0.2,0.1,0.2,0.3-0.2,0.6l-11.4,0.2l3.6,1.7c0.1,0.1,0.2,0.3,0.2,0.4
				l-0.8,1.3l-1.9,10.3c-0.4,1.3,0.1,2,1.5,2.3c1.2,0.3,3.2,0.3,6,0c1.1-0.2,2-1.1,2.6-2.6c0.1-0.1,0.2-0.2,0.4-0.2
				c0.1,0.1,0.2,0.3,0.2,0.6c-0.3,1,0.1,1.8,0.9,2.4c1.5,1.9,0.9,3.3-1.7,4.3c-2.6,0.5-5.5,0.6-8.6,0.2c-3.1-0.8-4.6-3.2-4.3-7.3
				l0.9-10.3l0.2-3h-4.9l2.4,1.1c0.1,0,0.2,0.1,0.4,0.2l-0.2,0.4l-0.6,1.1c0,9.8-7.1,16.7-21.2,20.8c-0.3,0.1-0.4,0.1-0.6,0
				c-0.1-0.4-0.1-0.6,0.2-0.8c12.4-3.6,18.4-11.3,18-22.9H721.4z M715.9,244.6c-0.6,0.3-1.3-0.5-1.9-2.3c-0.3-0.1-0.1-0.4,0.4-0.8
				c2.1-1.5,3.6-3.6,4.5-6.4c0.2-0.4,0.5-0.4,0.8,0v1.5l6.4-0.2l0.2-6.6l4.7,1.1c0.2,0.3,0.2,0.6,0,0.9l-0.6,1.5l-0.2,2.8l5.4-0.2
				l2.3-1.9l4.1,3.9c0.2,0.3,0.4,0.5,0.4,0.8c-0.1,0.1-0.3,0.2-0.6,0.2c-1.8,0.1-3.8,0.8-6.2,1.9c-0.4,0.3-0.5,0.1-0.4-0.4l0.8-3.6
				l-16.5,0.6C719.4,240.7,718.2,243,715.9,244.6z M720.4,244.8c-0.4,0-0.6-0.2-0.6-0.6c-0.1-0.2,0-0.4,0.4-0.4l11.1-0.4l1.9-2.1
				l2.6,2.4c0.2,0.1,0.2,0.3-0.2,0.6L720.4,244.8z"/>
			<path class="st60" d="M708.4,278.7c0-0.4,0.1-0.5,0.4-0.4l3.9,1.9v0.9l17.1-0.4l1.7-2.8l4.3,2.3c0.4,0.1,0.4,0.4,0.2,0.8
				l-1.3,1.7c-1.6,19.3-0.2,30.3,4.3,33.2c0.4,0.3,0.7,0.2,0.9-0.2l1.1-2.1c0.2-0.1,0.4,0,0.6,0.4c-0.5,2-0.3,3.4,0.6,4.3
				c0.8,1.1,0.7,2.1-0.2,3c-1,0.5-2.3,0.4-3.9-0.2c-7-2.4-9.8-15.5-8.3-39.4l-17.1,0.6v11.4c0.2,11.9-4.9,21.9-15.4,30
				c-0.3,0-0.4-0.1-0.4-0.4c-0.1-0.1-0.1-0.3,0.2-0.4c8.1-7.4,12-17.4,11.6-30.2v-7.7L708.4,278.7z M727.8,308.3
				c-0.6,1.1-1.4,2-2.4,2.6c-0.5,0.3-0.9,0.1-1.3-0.6c-0.9-2.9-1.9-5.5-3-7.9c-3,4.8-6.8,9.2-11.4,13.3c-0.4,0.1-0.6,0.1-0.8,0
				c-0.1,0-0.1-0.2,0-0.6c5-5.1,8.6-10.4,10.7-15.8c-1.5-3.2-3.2-6.2-5.1-9l0.4-0.2c0.4,0.5,1,1.2,1.9,2.1c1.7,1.9,3.1,3.3,3.9,4.3
				c1.1-3,2.1-6.6,3-10.7l4.1,2.1c0.2,0.3,0.2,0.6-0.2,0.9l-0.8,0.9c-1.1,3.5-2.4,6.6-3.9,9.4c2.1,2.5,3.9,4.8,5.3,6.9
				C728.4,306.9,728.3,307.6,727.8,308.3z"/>
			<path class="st60" d="M707.7,370.8c-0.3,0.2-0.5,0.4-0.8,0.4c-0.1-0.1-0.3-0.4-0.4-0.8l0.4-12.8v-8.8c-2.8,2.9-6.1,5.9-9.9,9
				c-0.4,0.3-0.5,0.2-0.4-0.2c5.6-5.4,10.3-12.5,14.1-21.4l3.6,2.6c0.2,0.3,0.2,0.5,0,0.8l-0.6,0.8c-1.1,1.8-2.3,3.3-3.6,4.7
				l0.2,19.9C710.1,366.8,709.2,368.8,707.7,370.8z M706.4,333.1c-2.3,0.1-3.9,0.3-5.1,0.6l-1.7-1.7l13.5-0.2v-6.2l4.9,1.9
				c0.1-0.1,0.2,0,0.2,0.4l-0.8,0.8l-0.4,3.2l7.7-0.2l0.4-6.2l5.3,1.7c0.4,0,0.4,0.1,0.2,0.4l-0.9,0.9l-0.8,3.2l6.8-0.2l3-2.8l3.4,3
				l0.2,0.4c-0.1,0.1-0.3,0.2-0.4,0.2l-13.1,0.4l-0.9,3.4c-0.6,1.1-1.5,1.8-2.6,2.1c-0.4-0.1-0.6-0.4-0.6-0.8l0.2-4.5h-7.7l-0.2,1.5
				c-0.3,1.4-1.3,2.5-3.2,3.4c-0.5,0.1-0.8,0-0.8-0.4l0.2-4.3L706.4,333.1z M714.6,341.5c-0.4,0.1-0.6,0-0.6-0.4
				c-0.1-0.5,0-0.8,0.4-0.8l20.4-0.4l2.8-3l3.2,3.2c0.1,0.1,0.2,0.3,0.2,0.4c0,0.1-0.1,0.2-0.4,0.2l-8.4,0.4l3.4,1.3
				c0.2,0.1,0.2,0.4,0,0.8l-0.8,1.9v10.3l0.2,6.4c0,3.6-2.1,6.6-6.4,9c-0.4,0.2-0.6,0.1-0.8-0.6c0.2-1.8-0.2-2.9-1.3-3.6
				c-0.3-0.3-0.3-0.5,0-0.8c3.1,0.4,4.5-0.6,4.1-3V349l-0.2-7.9L714.6,341.5z M724.9,343.8l3.8,2.4c0.2,0.1,0.2,0.3,0,0.6l-1.3,1.7
				l-0.2,7.7l0.4,0.6c0.1,0,0.1,0.1,0,0.4c-1.9,0-4.8,0.1-8.8,0.2c-0.3,1.5-0.9,3.1-2.1,4.7c-0.8,0.4-1.2,0.3-1.3-0.2l0.2-8.1v-3.4
				c0-3.1-0.1-5-0.2-5.6c0-0.4,0.2-0.5,0.6-0.4l3.2,2.1l3.9-0.2L724.9,343.8z M718.9,347.3v9l4.3-0.4l0.2-8.8L718.9,347.3z"/>
		</g>
	</g>
</g>
</svg>
